<svg width="502" height="280" viewBox="0 0 502 280" fill="none" xmlns="http://www.w3.org/2000/svg">
<path d="M445.235 168.98L313.781 93.0301C313.457 92.8074 313.083 92.6684 312.692 92.6257C312.302 92.5829 311.907 92.6377 311.542 92.7851H311.385L309.059 94.1676L310.178 96.1976V182.368C310.2 183.713 310.537 185.035 311.163 186.227C311.789 187.419 312.685 188.446 313.781 189.228L444.413 264.705L444.78 266.945L447.438 265.423L447.806 265.213C448.174 264.854 448.459 264.419 448.64 263.938C448.822 263.458 448.895 262.943 448.855 262.43V175.84C448.829 174.493 448.487 173.171 447.859 171.98C447.23 170.789 446.332 169.761 445.235 168.98Z" fill="#D3D6E0"/>
<path d="M442.647 266.753L311.192 190.75C310.117 189.957 309.241 188.924 308.634 187.733C308.027 186.542 307.706 185.227 307.695 183.89V97.2475C307.695 94.5875 309.339 93.38 311.192 94.535L442.647 170.485C443.724 171.276 444.601 172.309 445.208 173.5C445.815 174.691 446.136 176.008 446.144 177.345V264.04C446.231 266.683 444.623 267.908 442.647 266.753Z" fill="#F6F7FF"/>
<path d="M323.224 188.107L318.205 185.115L318.258 117.11L323.294 120.102L323.224 188.107Z" fill="#D3D6E0"/>
<path d="M323.224 188.108L318.205 185.185L318.24 171.64L323.276 174.563L323.224 188.108Z" fill="#CAA39F"/>
<path d="M339.173 197.312L334.136 194.302L334.189 126.315L339.208 129.342L339.173 197.312Z" fill="#D3D6E0"/>
<path d="M339.173 197.33L334.136 194.39L334.189 183.33L339.208 186.253L339.173 197.33Z" fill="#CAA39F"/>
<path d="M355.121 206.552L350.103 203.612L350.365 135.677L355.384 138.6L355.121 206.552Z" fill="#D3D6E0"/>
<path d="M355.121 206.535L350.103 203.612L350.207 175.98L355.226 178.92L355.121 206.535Z" fill="#CAA39F"/>
<path d="M371.192 215.845L366.156 212.905L366.436 144.97L371.454 147.892L371.192 215.845Z" fill="#D3D6E0"/>
<path d="M371.192 215.827L366.156 212.887L366.261 189.42L371.28 192.342L371.192 215.827Z" fill="#CAA39F"/>
<path d="M387.281 225.137L382.262 222.197L382.525 154.28L387.543 157.202L387.281 225.137Z" fill="#D3D6E0"/>
<path d="M387.281 225.12L382.262 222.18L382.402 186.287L387.421 189.21L387.281 225.12Z" fill="#CAA39F"/>
<path d="M403.457 234.483L398.438 231.56L398.7 163.625L403.719 166.565L403.457 234.483Z" fill="#D3D6E0"/>
<path d="M403.457 234.465L398.438 231.542L398.613 184.87L403.649 187.792L403.457 234.465Z" fill="#CAA39F"/>
<path d="M419.685 243.862L414.649 240.94L414.929 173.005L419.948 175.927L419.685 243.862Z" fill="#D3D6E0"/>
<path d="M419.685 243.845L414.649 240.905L414.894 182.63L419.913 185.57L419.685 243.845Z" fill="#CAA39F"/>
<path d="M436.001 253.313L430.965 250.373L431.245 182.438L436.281 185.378L436.001 253.313Z" fill="#D3D6E0"/>
<path d="M436.001 253.277L430.965 250.337L431.21 191.24L436.246 194.18L436.001 253.277Z" fill="#CAA39F"/>
<path d="M347.13 201.932L342.076 198.975L342.338 131.04L347.409 133.98L347.13 201.932Z" fill="#D3D6E0"/>
<path d="M347.112 201.915L342.093 198.975L342.181 176.312L347.217 179.252L347.112 201.915Z" fill="#CAA39F"/>
<path d="M363.148 211.19L358.112 208.25L358.374 140.315L363.411 143.237L363.148 211.19Z" fill="#D3D6E0"/>
<path d="M363.148 211.172L358.112 208.25L358.234 176.47L363.271 179.41L363.148 211.172Z" fill="#CAA39F"/>
<path d="M379.184 220.465L374.165 217.542L374.445 149.59L379.464 152.53L379.184 220.465Z" fill="#D3D6E0"/>
<path d="M379.184 220.448L374.165 217.525L374.34 175.823L379.359 178.745L379.184 220.448Z" fill="#CAA39F"/>
<path d="M395.343 229.793L390.324 226.87L390.586 158.935L395.605 161.858L395.343 229.793Z" fill="#D3D6E0"/>
<path d="M395.343 229.793L390.324 226.853L390.481 185.15L395.518 188.09L395.343 229.793Z" fill="#CAA39F"/>
<path d="M411.554 239.172L406.535 236.25L406.797 168.297L411.816 171.237L411.554 239.172Z" fill="#D3D6E0"/>
<path d="M411.554 239.137L406.535 236.215L406.727 184.573L411.763 187.513L411.554 239.137Z" fill="#CAA39F"/>
<path d="M427.817 248.588L422.798 245.648L423.078 177.713L428.097 180.653L427.817 248.588Z" fill="#D3D6E0"/>
<path d="M427.835 248.552L422.798 245.612L423.043 184.047L428.08 186.97L427.835 248.552Z" fill="#CAA39F"/>
<path d="M331.198 192.71L326.162 189.735L326.249 121.73L331.268 124.705L331.198 192.71Z" fill="#D3D6E0"/>
<path d="M331.181 192.71L326.162 189.787L326.232 172.917L331.268 175.857L331.181 192.71Z" fill="#CAA39F"/>
<path d="M316.315 106.714C317.16 106.226 317.164 104.65 316.323 103.193C315.483 101.737 314.117 100.952 313.272 101.44C312.428 101.928 312.424 103.504 313.264 104.961C314.104 106.417 315.47 107.202 316.315 106.714Z" fill="#D3D6E0"/>
<path d="M322.778 110.456C323.622 109.968 323.626 108.392 322.786 106.935C321.945 105.479 320.579 104.694 319.735 105.182C318.89 105.67 318.886 107.246 319.727 108.703C320.567 110.159 321.933 110.944 322.778 110.456Z" fill="#D3D6E0"/>
<path d="M329.247 114.174C330.091 113.686 330.095 112.11 329.255 110.653C328.415 109.197 327.049 108.412 326.204 108.9C325.359 109.388 325.355 110.965 326.196 112.421C327.036 113.877 328.402 114.662 329.247 114.174Z" fill="#D3D6E0"/>
<path opacity="0.4" d="M211.444 254.03L173.863 232.313C171.152 230.738 171.502 228.008 174.632 226.205L198.975 212.205L246.401 239.558L222.041 253.558C220.436 254.464 218.64 254.978 216.799 255.061C214.958 255.143 213.123 254.79 211.444 254.03Z" fill="#CFD2DF"/>
<path d="M214.277 252.402L176.696 230.685C173.968 229.127 174.317 226.397 177.448 224.595L201.825 210.595L249.252 237.895L224.769 252C223.172 252.88 221.392 253.375 219.571 253.445C217.749 253.515 215.936 253.158 214.277 252.402Z" fill="#A6AABA"/>
<path d="M249.146 237.895V236.46L246.961 237.72L249.146 237.895Z" fill="#A6AABA"/>
<path d="M174.807 228.095V226.643L177.062 227.57L174.807 228.095Z" fill="#A6AABA"/>
<path d="M214.276 250.968L176.643 229.25C173.915 227.693 174.265 224.963 177.395 223.143L201.773 209.143L249.251 236.46L224.891 250.46C223.286 251.373 221.489 251.895 219.644 251.983C217.8 252.071 215.961 251.723 214.276 250.968Z" fill="#CFD2DF"/>
<path d="M201.878 209.143L196.002 189.665L243.918 217.175L249.147 236.46L201.878 209.143Z" fill="#9296A4"/>
<path d="M247.747 237.264L249.146 236.459L247.083 234.815L247.747 237.264Z" fill="#9296A4"/>
<path d="M200.356 209.878L194.498 190.4L242.414 217.91L247.748 237.265L200.356 209.878Z" fill="#A6AABA"/>
<path d="M321.999 270.095L136.544 162.925C135.124 161.902 133.961 160.563 133.145 159.015C132.329 157.467 131.882 155.75 131.839 154V10.5C131.839 6.99999 133.955 5.42499 136.544 6.99999L321.999 113.942C323.427 114.978 324.596 116.33 325.412 117.894C326.228 119.458 326.67 121.191 326.704 122.955V266.455C326.704 270.007 324.605 271.6 321.999 270.095Z" fill="#BABFCE"/>
<path d="M322.944 271.565L325.008 270.393L324.116 264.285L322.944 271.565Z" fill="#BABFCE"/>
<path d="M131.472 7.66501L133.501 6.51001L136.404 8.15501L133.238 8.62751L131.472 7.66501Z" fill="#A6AABA"/>
<path d="M320.303 271.075L134.813 163.887C133.384 162.853 132.215 161.5 131.398 159.936C130.582 158.372 130.14 156.639 130.108 154.875V11.3747C130.108 7.87474 132.224 6.29974 134.813 7.87474L320.303 114.94C321.732 115.97 322.901 117.32 323.718 118.881C324.534 120.442 324.976 122.173 325.008 123.935V267.435C325.008 270.987 322.892 272.58 320.303 271.075Z" fill="#DEE3EE"/>
<path d="M319.971 271.25L134.498 164.097C133.064 163.067 131.89 161.715 131.07 160.151C130.251 158.586 129.807 156.851 129.776 155.085V11.5845C129.776 8.08453 131.892 6.52703 134.498 8.08453L319.971 115.115C321.403 116.146 322.574 117.498 323.391 119.063C324.208 120.627 324.648 122.362 324.675 124.127V267.627C324.675 271.145 322.577 272.772 319.971 271.25Z" fill="#CFD2DF"/>
<path d="M322.14 262.5L132.085 152.757L132.19 12.0924C132.19 10.6574 133.204 10.0799 134.446 10.7974L319.972 117.95C320.628 118.381 321.174 118.961 321.566 119.641C321.957 120.322 322.184 121.086 322.228 121.87L322.14 262.5Z" fill="white"/>
<path d="M158.963 57.2951L141.72 47.25C141.452 47.0427 141.232 46.7781 141.078 46.4755C140.924 46.1728 140.838 45.8397 140.829 45.5V25.8475C140.829 25.1125 141.266 24.78 141.808 25.095L159.051 35.0875C159.348 35.3021 159.591 35.5831 159.761 35.9081C159.931 36.2331 160.023 36.5933 160.03 36.96V56.56C159.943 57.2775 159.505 57.6101 158.963 57.2951Z" fill="#E4E6EE"/>
<path d="M182.903 71.1374L165.608 61.1449C165.308 60.9332 165.062 60.653 164.892 60.3273C164.722 60.0016 164.631 59.6399 164.629 59.2724V39.6724C164.629 38.9549 165.066 38.6224 165.608 38.9374L182.886 48.9124C183.188 49.1278 183.435 49.411 183.608 49.7391C183.781 50.0673 183.875 50.4314 183.883 50.8024V70.3849C183.883 71.1199 183.446 71.4874 182.903 71.1374Z" fill="#E4E6EE"/>
<path d="M206.285 84.6298L188.989 74.6548C188.69 74.4411 188.444 74.1608 188.271 73.8359C188.098 73.511 188.003 73.1503 187.993 72.7823V53.1648C187.993 52.4473 188.447 52.1148 188.989 52.4298L206.285 62.4398C206.586 62.6504 206.832 62.9305 207.003 63.2564C207.173 63.5823 207.263 63.9445 207.264 64.3123V83.8948C207.281 84.6123 206.792 84.9448 206.285 84.6298Z" fill="#E4E6EE"/>
<path d="M158.963 84.9623L141.72 74.9873C141.435 74.7673 141.205 74.4831 141.051 74.1578C140.896 73.8324 140.819 73.4751 140.828 73.1148V53.5148C140.828 52.7798 141.266 52.4473 141.808 52.7623L159.05 62.7373C159.347 62.9565 159.59 63.2408 159.759 63.5685C159.929 63.8961 160.022 64.2583 160.03 64.6273V84.2273C159.942 84.9448 159.505 85.2948 158.963 84.9623Z" fill="#E4E6EE"/>
<path d="M182.903 98.8051L165.608 88.8301C165.307 88.6157 165.06 88.3324 164.89 88.0037C164.72 87.675 164.63 87.3104 164.629 86.9401V67.3401C164.629 66.6226 165.066 66.2901 165.608 66.6051L182.886 76.5801C183.18 76.7975 183.422 77.0791 183.591 77.4035C183.761 77.7279 183.855 78.0866 183.865 78.4526V98.0001C183.883 98.7876 183.446 99.1201 182.903 98.8051Z" fill="#E4E6EE"/>
<path d="M185.247 97.51L167.987 87.5C167.696 87.2864 167.461 87.0068 167.3 86.6843C167.138 86.3618 167.056 86.0056 167.06 85.645V66.045C167.06 65.3275 167.497 64.9775 168.039 65.2925L185.247 75.25C185.547 75.4627 185.794 75.7428 185.967 76.068C186.14 76.3931 186.235 76.7542 186.244 77.1225V96.7225C186.296 97.4925 185.789 97.8075 185.247 97.51Z" fill="#CAA39F"/>
<path d="M206.284 112.298L188.989 102.323C188.699 102.103 188.464 101.821 188.3 101.496C188.136 101.171 188.049 100.814 188.045 100.45V80.8325C188.045 80.115 188.5 79.7825 189.042 80.0975L206.337 90.0725C206.637 90.2842 206.883 90.5645 207.053 90.8901C207.223 91.2158 207.314 91.5775 207.316 91.945V111.545C207.281 112.28 206.792 112.613 206.284 112.298Z" fill="#E4E6EE"/>
<path d="M158.963 113.225L141.72 103.25C141.436 103.029 141.208 102.745 141.053 102.42C140.898 102.094 140.821 101.738 140.829 101.378V81.76C140.829 81.0425 141.266 80.71 141.808 81.025L158.963 91C159.26 91.2156 159.502 91.4967 159.672 91.8215C159.842 92.1463 159.934 92.506 159.943 92.8725V112.49C159.943 113.207 159.505 113.54 158.963 113.225Z" fill="#E4E6EE"/>
<path d="M206.285 156.362L141.72 119C141.453 118.791 141.235 118.526 141.081 118.224C140.927 117.921 140.841 117.589 140.829 117.25V112.665C140.829 111.93 141.266 111.597 141.808 111.912L206.372 149.222C206.672 149.434 206.918 149.714 207.088 150.04C207.259 150.366 207.349 150.727 207.351 151.095V155.627C207.281 156.345 206.792 156.677 206.285 156.362Z" fill="#E4E6EE"/>
<path d="M189.671 157.5L141.965 129.885C141.668 129.67 141.425 129.389 141.255 129.064C141.085 128.739 140.993 128.379 140.986 128.012V125.755C140.986 125.037 141.423 124.705 141.965 125.02L189.671 152.565C189.971 152.781 190.216 153.065 190.386 153.393C190.556 153.722 190.647 154.085 190.651 154.455V156.695C190.651 157.5 190.213 157.762 189.671 157.5Z" fill="#E4E6EE"/>
<path d="M189.671 165.952L141.965 138.39C141.666 138.174 141.421 137.89 141.251 137.562C141.081 137.233 140.99 136.87 140.986 136.5V134.277C140.986 133.56 141.423 133.227 141.965 133.542L189.671 161.087C189.969 161.302 190.212 161.583 190.382 161.908C190.552 162.233 190.644 162.593 190.651 162.96V165.217C190.651 165.935 190.213 166.25 189.671 165.952Z" fill="#E4E6EE"/>
<path d="M180.665 169.26L141.965 146.895C141.669 146.679 141.426 146.398 141.256 146.073C141.087 145.749 140.994 145.389 140.986 145.022V142.782C140.986 142.065 141.423 141.732 141.965 142.047L180.665 164.395C180.967 164.609 181.213 164.893 181.383 165.221C181.554 165.55 181.643 165.915 181.644 166.285V168.525C181.644 169.243 181.207 169.575 180.665 169.26Z" fill="#CAA39F"/>
<path d="M312.574 218.172L219.348 164.325C219.052 164.109 218.809 163.828 218.639 163.503C218.469 163.179 218.377 162.819 218.369 162.452V157.92C218.369 157.202 218.806 156.87 219.348 157.185L312.574 211.05C312.875 211.262 313.12 211.542 313.29 211.868C313.461 212.193 313.551 212.555 313.554 212.922V217.455C313.554 218.172 313.116 218.505 312.574 218.172Z" fill="#E4E6EE"/>
<path d="M303.463 223.545L219.715 175.158C219.421 174.94 219.18 174.659 219.01 174.334C218.84 174.01 218.747 173.651 218.736 173.285V171.045C218.736 170.31 219.173 169.978 219.715 170.293L303.463 218.75C303.759 218.966 304.002 219.247 304.172 219.572C304.342 219.896 304.434 220.256 304.442 220.623V222.863C304.373 223.528 303.935 223.843 303.463 223.545Z" fill="#E4E6EE"/>
<path d="M303.463 232.05L219.645 183.75C219.35 183.533 219.109 183.251 218.94 182.927C218.77 182.602 218.676 182.243 218.666 181.877V179.55C218.666 178.815 219.103 178.482 219.645 178.797L303.463 227.202C303.76 227.422 304.002 227.706 304.172 228.034C304.342 228.361 304.434 228.723 304.442 229.092V231.332C304.372 232.032 303.935 232.382 303.463 232.05Z" fill="#E4E6EE"/>
<path d="M287.864 231.577L219.662 192.167C219.366 191.948 219.123 191.664 218.953 191.336C218.784 191.009 218.691 190.646 218.683 190.277V188.037C218.683 187.32 219.12 186.987 219.662 187.302L287.864 226.712C288.161 226.927 288.405 227.208 288.575 227.533C288.745 227.858 288.837 228.218 288.843 228.585V230.825C288.843 231.56 288.406 231.892 287.864 231.577Z" fill="#CAA39F"/>
<path d="M182.903 127.05L165.608 117.075C165.307 116.864 165.061 116.584 164.89 116.258C164.72 115.932 164.63 115.57 164.629 115.202V95.585C164.629 94.8675 165.066 94.535 165.608 94.85L182.886 104.825C183.183 105.044 183.425 105.329 183.595 105.656C183.765 105.984 183.857 106.346 183.865 106.715V126.315C183.883 127.05 183.446 127.365 182.903 127.05Z" fill="#E4E6EE"/>
<path d="M206.285 140.56L188.989 130.567C188.689 130.355 188.442 130.075 188.269 129.749C188.096 129.424 188.001 129.063 187.993 128.695V109.095C187.993 108.36 188.447 108.027 188.989 108.342L206.285 118.317C206.586 118.532 206.833 118.815 207.003 119.144C207.173 119.472 207.263 119.837 207.264 120.207V139.807C207.281 140.542 206.792 140.857 206.285 140.56Z" fill="#E4E6EE"/>
<path d="M312.574 202.003L219.348 148.12C219.052 147.905 218.809 147.623 218.639 147.299C218.469 146.974 218.377 146.614 218.369 146.248V115.5C218.369 114.765 218.806 114.433 219.348 114.748L312.574 168.613C312.873 168.826 313.117 169.107 313.287 169.432C313.457 169.757 313.548 170.118 313.554 170.485V201.25C313.554 201.968 313.116 202.3 312.574 202.003Z" fill="#E4E6EE"/>
<path d="M232.114 110.81C224.192 106.225 217.756 95.06 217.756 85.925C217.756 76.79 224.209 73.0625 232.114 77.63C240.018 82.1975 246.471 93.38 246.471 102.515C246.471 111.65 240.018 115.378 232.114 110.81ZM232.114 82.425C226.483 79.1875 221.901 81.8125 221.901 88.3225C222.097 91.8665 223.124 95.3145 224.898 98.388C226.672 101.461 229.144 104.074 232.114 106.015C237.745 109.253 242.326 106.61 242.326 100.118C242.12 96.5758 241.09 93.1314 239.316 90.0594C237.543 86.9874 235.077 84.373 232.114 82.425Z" fill="#E4E6EE"/>
<path d="M232.114 110.81C224.192 106.225 217.756 95.06 217.756 85.925C217.756 76.79 224.209 73.0625 232.114 77.63V82.425C226.483 79.1875 221.901 81.8125 221.901 88.3225C222.097 91.8665 223.124 95.3145 224.898 98.388C226.672 101.461 229.144 104.074 232.114 106.015C237.745 109.253 242.326 106.61 242.326 100.118L246.471 102.515C246.453 111.65 240.018 115.378 232.114 110.81Z" fill="#CAA39F"/>
<path d="M265.602 130.165C257.681 125.58 251.245 114.415 251.245 105.28C251.245 96.1449 257.698 92.3999 265.602 96.9849C273.507 101.57 279.96 112.735 279.96 121.87C279.96 131.005 273.524 134.75 265.602 130.165ZM265.602 101.78C259.971 98.5424 255.39 101.167 255.39 107.677C255.585 111.222 256.611 114.67 258.385 117.744C260.159 120.818 262.632 123.43 265.602 125.37C271.233 128.625 275.815 125.982 275.815 119.472C275.62 115.928 274.594 112.48 272.82 109.406C271.046 106.332 268.573 103.72 265.602 101.78Z" fill="#E4E6EE"/>
<path d="M265.602 130.165C257.681 125.58 251.245 114.415 251.245 105.28C251.245 96.1449 257.698 92.3999 265.602 96.9849V101.78C259.971 98.5424 255.39 101.167 255.39 107.677C255.585 111.222 256.611 114.67 258.385 117.744C260.159 120.818 262.632 123.43 265.602 125.37C267.316 126.493 269.38 126.954 271.408 126.665L273.787 131.915C270.936 132.353 268.025 131.73 265.602 130.165Z" fill="#CAA39F"/>
<path d="M299.091 149.503C291.169 144.935 284.734 133.753 284.734 124.618C284.734 115.483 291.204 111.755 299.091 116.323C306.978 120.89 313.466 132.073 313.466 141.208C313.466 150.343 306.961 154.088 299.091 149.503ZM299.091 121.118C293.46 117.898 288.878 120.523 288.878 127.015C289.073 130.559 290.1 134.008 291.874 137.082C293.648 140.155 296.121 142.768 299.091 144.708C304.722 147.963 309.304 145.32 309.304 138.81C309.109 135.266 308.083 131.817 306.309 128.744C304.534 125.67 302.062 123.057 299.091 121.118Z" fill="#E4E6EE"/>
<path d="M286.605 133.875C285.433 130.926 284.8 127.791 284.734 124.618C284.734 115.483 291.204 111.755 299.091 116.323V121.118C293.46 117.898 288.878 120.523 288.878 127.015C288.931 129.271 289.387 131.5 290.225 133.595L286.605 133.875Z" fill="#CAA39F"/>
<path d="M74.2706 79.2049L37.2319 57.7499H37.092C36.4431 57.4727 35.7338 57.3673 35.0325 57.444C34.3311 57.5206 33.6612 57.7766 33.0874 58.1874C31.3988 59.29 29.9944 60.7761 28.9885 62.5247C27.9826 64.2734 27.4037 66.235 27.299 68.2499C27.2068 68.9832 27.3218 69.7276 27.6309 70.3989C27.94 71.0701 28.4308 71.6412 29.0477 72.0474L66.646 93.6599L74.2706 79.2049Z" fill="#155B61"/>
<path d="M74.5852 88.8117C76.8452 84.8945 76.8465 80.6612 74.5882 79.3564C72.3299 78.0517 68.667 80.1695 66.407 84.0867C64.147 88.0039 64.1457 92.2372 66.404 93.5419C68.6623 94.8467 72.3252 92.7289 74.5852 88.8117Z" fill="#294446"/>
<path d="M87.0364 102.463L67.7476 91.3325V83.51L87.0364 94.6575V102.463Z" fill="#CFD2DF"/>
<path d="M87.0364 94.6751L67.7476 83.5276L72.1894 80.9551L91.4782 92.1026L87.0364 94.6751Z" fill="#BABFCE"/>
<path d="M134.255 145.788C145.865 139.08 145.865 117.331 134.256 97.2089C122.647 77.0871 103.825 66.2127 92.2152 72.9202C80.6057 79.6277 80.6053 101.377 92.2144 121.499C103.823 141.621 122.646 152.495 134.255 145.788Z" fill="url(#paint0_linear)"/>
<path d="M117.29 148.75C97.3715 137.235 81.1431 109.147 81.1431 86.1524C81.1431 63.1574 97.3541 53.7774 117.29 65.2924C137.226 76.8074 153.419 104.86 153.419 127.872C153.419 150.885 137.191 160.23 117.29 148.75ZM117.29 78.4874C103.667 70.5949 92.5799 76.9999 92.5799 92.7499C92.5799 108.5 103.667 127.75 117.29 135.607C130.913 143.465 141.982 137.077 141.982 121.345C141.982 105.612 130.913 86.3274 117.29 78.4699V78.4874Z" fill="#294446"/>
<path d="M113.233 151.078C93.3145 139.58 77.1035 111.493 77.1035 88.48C77.1035 65.4675 93.297 56.1225 113.233 67.6375C133.169 79.1525 149.362 107.205 149.362 130.218C149.362 153.23 133.134 162.575 113.233 151.078ZM113.233 80.815C99.61 72.94 88.5229 79.3275 88.5229 95.0775C88.5229 110.828 99.61 130.078 113.233 137.935C126.856 145.793 137.925 139.405 137.925 123.655C137.925 107.905 126.838 88.6725 113.233 80.815Z" fill="#155B61"/>
<path d="M340.31 34.16L330.219 28.315C329.6 30.1457 328.652 31.8478 327.421 33.3375L318.765 45.3075L310.126 23.275C308.976 20.6302 308.04 17.8972 307.328 15.1025L297.29 9.29248C298.164 11.0425 299.686 14.5425 301.365 18.5675L309.479 37.9925L306.209 36.1025C304.06 34.9138 302.013 33.5501 300.088 32.025V39.6725C302.216 40.4859 304.265 41.4934 306.209 42.6825L312.994 46.6025L314.918 51.135V53.1475L306.174 48.0375C303.996 46.8517 301.919 45.4879 299.966 43.96V51.6075C302.099 52.4209 304.154 53.4284 306.104 54.6175L314.848 59.71V64.2775C314.863 67.0554 314.705 69.8316 314.375 72.59L323.014 77.5775C322.664 74.6394 322.512 71.681 322.56 68.7225V64.155L331.198 69.16C333.346 70.3595 335.398 71.7227 337.337 73.2375V65.59C335.201 64.7798 333.147 63.7721 331.198 62.58L322.699 57.5925V55.65L324.623 53.27L331.443 57.225C333.588 58.4202 335.635 59.7836 337.564 61.3025V53.655C335.436 52.8416 333.387 51.834 331.443 50.645L328.173 48.755L336.217 38.6575C337.504 37.0895 338.87 35.5884 340.31 34.16Z" fill="#CFD2DF"/>
<path d="M413.495 99.5223L397.826 64.1023L382.14 81.4098L397.826 100.1L413.495 99.5223Z" fill="#CFD2DF"/>
<path d="M382.14 86.5024L397.826 121.94L413.495 104.615L397.826 106.872L382.14 86.5024Z" fill="#CFD2DF"/>
<path d="M365.142 62.4572L346.64 51.7822V61.4247L365.142 72.1172V78.5747L375.547 72.6422L365.142 56.0172V62.4572Z" fill="#CFD2DF"/>
<path d="M357.045 73.9026L346.64 79.8351L357.045 96.4601V90.0026L375.547 100.695V91.0351L357.045 80.3426V73.9026Z" fill="#CFD2DF"/>
<defs>
<linearGradient id="paint0_linear" x1="147.169" y1="128.604" x2="80.353" y2="90.232" gradientUnits="userSpaceOnUse">
<stop stop-color="white" stop-opacity="0.4"/>
<stop offset="0.89" stop-color="white" stop-opacity="0"/>
</linearGradient>
</defs>
</svg>
