<svg width="366" height="386" viewBox="0 0 366 386" fill="none" xmlns="http://www.w3.org/2000/svg">
<path d="M96.7049 295.867L19.0693 340.658V251.624L96.7049 206.833V295.867Z" fill="#294446"/>
<path d="M100.754 295.867L23.1182 340.658V251.624L100.754 206.833V295.867Z" fill="#9A7C79"/>
<path d="M100.754 295.867L174.341 340.136V251.128L100.754 206.833V295.867Z" fill="#B28F8C"/>
<path d="M100.754 206.833L23.1184 251.624L4.12744 205.763L81.763 160.998L100.754 206.833Z" fill="#B28F8C"/>
<path d="M115.774 273.158L111.673 267.833L91.3759 293.387L24.4244 254.756L4.12733 205.789L0 206.363L19.0693 252.355V340.684L96.7049 385.475V297.146L115.774 273.158Z" fill="#CAA39F"/>
<path d="M49.6846 311.946C52.741 313.695 55.2487 312.285 55.2487 308.788C55.1402 306.87 54.5796 305.005 53.6126 303.344C52.6457 301.684 51.2998 300.276 49.6846 299.234C46.6283 297.459 44.1467 298.869 44.1467 302.393C44.2565 304.307 44.8148 306.169 45.7767 307.828C46.7386 309.488 48.0772 310.898 49.6846 311.946V311.946Z" stroke="white" stroke-width="2.13" stroke-linecap="round" stroke-linejoin="round"/>
<path d="M63.3728 319.829C63.1498 320.529 63.088 321.271 63.1921 321.999C63.2961 322.726 63.5633 323.421 63.9736 324.031L64.1042 324.24C64.7586 325.341 65.1268 326.588 65.1753 327.868C65.2206 328.323 65.1455 328.782 64.9575 329.199C64.7696 329.616 64.4753 329.976 64.1042 330.243C63.6823 330.43 63.2182 330.502 62.7594 330.452C62.3005 330.402 61.8632 330.23 61.492 329.956C60.4031 329.278 59.5042 328.335 58.8798 327.216V327.033C58.5445 326.377 58.0687 325.803 57.4863 325.352C56.9039 324.901 56.2291 324.584 55.51 324.423C54.3867 324.423 53.6814 325.18 53.6553 326.563V326.876C53.6553 329.225 52.0096 330.165 49.9721 328.99C48.8977 328.293 48.0023 327.354 47.358 326.248C46.7137 325.141 46.3385 323.899 46.2627 322.622V322.413C46.154 320.774 45.4476 319.233 44.2774 318.08C43.128 316.827 41.6652 316.331 40.9076 316.827C40.4879 317.018 40.0251 317.094 39.5663 317.048C39.1075 317.002 38.669 316.836 38.2954 316.566C37.2111 315.939 36.3103 315.039 35.6832 313.956C35.0101 312.861 34.6321 311.611 34.586 310.328C34.5436 309.87 34.6227 309.41 34.8153 308.993C35.0079 308.576 35.3073 308.217 35.6832 307.952C36.5452 307.43 36.7803 306.021 36.284 304.428C35.8267 302.891 34.8356 301.568 33.4889 300.696L33.1754 300.513C32.103 299.816 31.2105 298.876 30.5704 297.769C29.9304 296.663 29.561 295.421 29.4922 294.144C29.4922 291.821 31.1379 290.855 33.1754 292.056H33.3583C34.6121 292.761 35.7093 292.474 36.1534 291.377C36.3765 290.676 36.436 289.932 36.3273 289.204C36.2186 288.475 35.9447 287.781 35.5264 287.175V286.992C34.8534 285.898 34.4754 284.648 34.4293 283.364C34.3868 282.907 34.4659 282.446 34.6586 282.029C34.8512 281.612 35.1506 281.253 35.5264 280.989C35.9462 280.798 36.4089 280.722 36.8677 280.768C37.3266 280.813 37.765 280.98 38.1387 281.25C39.2116 281.891 40.1091 282.788 40.7509 283.86V284.069C41.0862 284.725 41.562 285.298 42.1444 285.75C42.7268 286.201 43.4016 286.518 44.1207 286.679H44.2774C45.4007 286.679 46.1321 285.948 46.1321 284.539V284.199C46.1321 281.85 47.7778 280.91 49.8153 282.085C50.8911 282.781 51.7877 283.72 52.4322 284.826C53.0767 285.933 53.451 287.176 53.5247 288.454V288.637C53.6105 290.239 54.2686 291.758 55.3794 292.917C56.5026 294.144 57.8349 294.64 58.723 294.144C59.1428 293.954 59.6055 293.877 60.0644 293.923C60.5232 293.969 60.9616 294.135 61.3353 294.405C62.4204 295.099 63.3176 296.049 63.9475 297.172C64.6039 298.263 64.9724 299.502 65.0185 300.774C65.0638 301.229 64.9888 301.688 64.8008 302.105C64.6128 302.522 64.3186 302.882 63.9475 303.149V303.149C63.0593 303.672 62.8242 305.055 63.3206 306.647V306.83C63.8053 308.353 64.7901 309.668 66.1157 310.562L66.4291 310.719C67.504 311.422 68.3994 312.366 69.0435 313.477C69.6876 314.587 70.0626 315.833 70.1385 317.114C70.1385 319.437 68.4667 320.377 66.4291 319.202H66.2724C64.9401 318.628 63.843 318.837 63.3728 319.829Z" stroke="white" stroke-width="2.13" stroke-linecap="round" stroke-linejoin="round"/>
<path d="M74.5531 345.383C76.434 346.453 77.949 345.592 77.949 343.451C77.8874 342.277 77.5474 341.135 76.9569 340.118C76.3665 339.102 75.5426 338.24 74.5531 337.604C72.6723 336.508 71.1572 337.369 71.1572 339.536C71.225 340.708 71.5677 341.848 72.1576 342.864C72.7475 343.879 73.5681 344.742 74.5531 345.383V345.383Z" stroke="white" stroke-width="1.42" stroke-linecap="round" stroke-linejoin="round"/>
<path d="M82.9384 350.212C82.7966 350.646 82.7558 351.107 82.8192 351.559C82.8826 352.011 83.0484 352.443 83.3041 352.822V352.822C83.7044 353.495 83.929 354.258 83.9572 355.041C83.9872 355.32 83.9425 355.603 83.8278 355.859C83.7131 356.116 83.5324 356.338 83.3041 356.502C83.0431 356.616 82.7574 356.662 82.474 356.634C82.1905 356.607 81.9188 356.507 81.6845 356.346C81.0215 355.92 80.4741 355.337 80.0911 354.649V354.649C79.9086 354.248 79.6414 353.891 79.3077 353.602C78.974 353.314 78.5818 353.101 78.158 352.978C77.4788 352.978 77.0086 353.422 77.0086 354.284V354.492C77.0086 355.928 76.016 356.502 74.7621 355.797C74.1025 355.369 73.553 354.791 73.1582 354.111C72.7634 353.431 72.5343 352.667 72.4895 351.882V351.882C72.4079 350.893 71.972 349.966 71.2617 349.272C70.5825 348.515 69.7466 348.202 69.198 348.515C68.9371 348.629 68.6513 348.674 68.3679 348.647C68.0845 348.619 67.8127 348.52 67.5785 348.358C66.9155 347.933 66.3681 347.35 65.985 346.662C65.5815 345.99 65.3567 345.226 65.3319 344.443C65.304 344.167 65.3497 343.889 65.4644 343.637C65.5792 343.385 65.7588 343.168 65.985 343.007V343.007C66.5074 342.694 66.6642 341.833 66.3507 340.867C66.0704 339.927 65.4697 339.114 64.6528 338.57H64.4438C63.7881 338.146 63.2425 337.572 62.852 336.896C62.4615 336.22 62.2371 335.461 62.1973 334.681C62.1973 333.245 63.1899 332.671 64.4438 333.376C65.2275 333.82 65.8805 333.637 66.1679 332.984C66.304 332.548 66.3394 332.086 66.2716 331.634C66.2037 331.182 66.0343 330.751 65.776 330.374V330.244C65.3544 329.578 65.1198 328.812 65.0968 328.025C65.0659 327.746 65.113 327.464 65.2329 327.211C65.3529 326.957 65.5409 326.742 65.776 326.589C66.0312 326.47 66.3139 326.421 66.5943 326.449C66.8747 326.476 67.1425 326.579 67.3695 326.746C68.038 327.154 68.5875 327.73 68.963 328.416C69.1651 328.822 69.4552 329.178 69.8122 329.458C70.1691 329.738 70.584 329.935 71.0266 330.035C71.7058 330.035 72.1499 329.565 72.176 328.73V328.495C72.176 327.059 73.1686 326.485 74.4225 327.216C75.0802 327.64 75.6286 328.214 76.0234 328.889C76.4182 329.565 76.6483 330.324 76.6952 331.105V331.105C76.7461 332.081 77.1445 333.007 77.8184 333.715C78.5237 334.472 79.3335 334.759 79.8821 334.472C80.1373 334.353 80.4199 334.304 80.7003 334.332C80.9807 334.359 81.2485 334.462 81.4755 334.629C82.1303 335.056 82.6766 335.63 83.071 336.305C83.4655 336.98 83.6973 337.738 83.7482 338.518C83.7811 338.8 83.7351 339.087 83.6152 339.345C83.4953 339.603 83.3063 339.822 83.069 339.98V339.98C82.5204 340.293 82.3898 341.128 82.6772 342.12C82.9676 343.056 83.5778 343.859 84.4012 344.391H84.5841C85.2437 344.82 85.7932 345.397 86.188 346.078C86.5828 346.758 86.8119 347.521 86.8567 348.306C86.8567 349.742 85.838 350.316 84.5841 349.585C83.9049 349.481 83.2257 349.585 82.9384 350.212Z" stroke="white" stroke-width="1.42" stroke-linecap="round" stroke-linejoin="round"/>
<path d="M96.7048 296.467L115.774 273.158L191.163 227.845L174.34 251.676L96.7048 296.467Z" fill="#9A7C79"/>
<path d="M186.696 223.199L191.163 227.845L115.774 273.158L111.673 267.833L186.696 223.199Z" fill="#CAA39F"/>
<path d="M174.34 340.684L96.7048 385.476V296.468L174.34 251.677V340.684Z" fill="#9A7C79"/>
<path d="M77.6356 161.52L0 206.311L4.12733 205.763L81.7629 160.998L77.6356 161.52Z" fill="#CAA39F"/>
<path d="M282.513 240.165L101.903 135.992C99.9813 134.608 98.4092 132.795 97.3118 130.697C96.2143 128.599 95.6219 126.274 95.5815 123.907V6.08221C95.5815 1.40994 98.4289 -0.730429 101.903 1.27943L282.513 105.479C284.442 106.856 286.02 108.667 287.118 110.767C288.216 112.867 288.804 115.195 288.835 117.564V235.519C288.835 240.035 286.013 242.201 282.513 240.165Z" fill="#CBCBCB"/>
<path d="M111.507 23.4866C113.015 22.6063 112.997 19.774 111.468 17.1605C109.939 14.547 107.477 13.1419 105.97 14.0223C104.463 14.9026 104.481 17.7349 106.01 20.3484C107.539 22.9619 110 24.3669 111.507 23.4866Z" fill="#FF544D"/>
<path d="M122.728 29.9497C124.235 29.0694 124.217 26.2371 122.688 23.6236C121.159 21.0101 118.698 19.6051 117.191 20.4854C115.684 21.3657 115.701 24.198 117.23 26.8115C118.759 29.425 121.221 30.83 122.728 29.9497Z" fill="#FFB63D"/>
<path d="M133.97 36.4253C135.477 35.545 135.46 32.7127 133.931 30.0992C132.402 27.4857 129.94 26.0807 128.433 26.961C126.926 27.8413 126.944 30.6736 128.473 33.2871C130.002 35.9006 132.463 37.3056 133.97 36.4253Z" fill="#00C147"/>
<path d="M275.93 135.757L107.31 38.4746C106.567 37.947 105.959 37.2508 105.537 36.4432C105.115 35.6356 104.89 34.7396 104.881 33.8285C104.881 32.0274 105.952 31.2183 107.31 31.9752L275.93 129.258C276.67 129.788 277.276 130.485 277.698 131.292C278.12 132.099 278.346 132.993 278.359 133.904C278.359 135.705 277.262 136.54 275.93 135.757Z" fill="#E5E5E5"/>
<path d="M275.93 151.471L107.31 54.2144C106.567 53.6811 105.959 52.9802 105.537 52.1684C105.115 51.3566 104.89 50.4569 104.881 49.5421C104.881 47.7411 105.952 46.9319 107.31 47.7149L275.93 144.971C276.67 145.509 277.274 146.211 277.695 147.021C278.117 147.832 278.344 148.73 278.359 149.643C278.359 151.418 277.262 152.254 275.93 151.471Z" fill="#E5E5E5"/>
<path d="M275.93 167.393L107.31 70.1367C106.567 69.6035 105.959 68.9025 105.537 68.0908C105.115 67.279 104.89 66.3792 104.881 65.4645C104.881 63.6634 105.952 62.8543 107.31 63.6373L275.93 160.894C276.67 161.431 277.274 162.133 277.695 162.944C278.117 163.755 278.344 164.652 278.359 165.566C278.359 167.341 277.262 168.176 275.93 167.393Z" fill="#E5E5E5"/>
<path d="M275.93 182.924L107.31 85.6675C106.567 85.1342 105.959 84.4333 105.537 83.6215C105.115 82.8097 104.89 81.91 104.881 80.9952C104.881 79.1942 105.952 78.385 107.31 79.1681L275.93 176.424C276.67 176.962 277.274 177.664 277.695 178.475C278.117 179.285 278.344 180.183 278.359 181.097C278.359 182.872 277.262 183.707 275.93 182.924Z" fill="#E5E5E5"/>
<path d="M191.607 149.017L107.31 100.389C106.567 99.8557 105.959 99.1547 105.537 98.343C105.115 97.5312 104.89 96.6314 104.881 95.7166C104.881 93.9156 105.952 93.1065 107.31 93.8895L191.607 142.518C192.351 143.047 192.96 143.743 193.387 144.55C193.813 145.356 194.045 146.252 194.063 147.164C194.063 148.965 193.096 149.8 191.607 149.017Z" fill="#E5E5E5"/>
<path d="M281.338 244.055L287.111 240.165V120.722L278.36 106.131L98.1156 0.80957L91.8723 4.88149L281.338 244.055Z" fill="#CBCBCB"/>
<path d="M277.027 243.819L96.4437 139.646C94.514 138.268 92.9347 136.456 91.8323 134.357C90.7299 132.259 90.1352 129.931 90.0959 127.561V9.73626C90.0959 5.06399 92.9433 2.92362 96.4437 4.93348L277.027 109.133C278.957 110.51 280.534 112.322 281.633 114.421C282.731 116.521 283.319 118.849 283.349 121.218V239.043C283.349 243.689 280.528 245.96 277.027 243.819Z" fill="#F1F1F1"/>
<path d="M106.031 27.137C107.538 26.2567 107.521 23.4244 105.992 20.8109C104.463 18.1974 102.001 16.7923 100.494 17.6727C98.9873 18.553 99.0051 21.3853 100.534 23.9988C102.063 26.6123 104.524 28.0173 106.031 27.137Z" fill="#FF544D"/>
<path d="M117.274 33.5864C118.781 32.7061 118.763 29.8738 117.234 27.2603C115.705 24.6468 113.244 23.2418 111.737 24.1221C110.23 25.0024 110.248 27.8347 111.777 30.4482C113.306 33.0617 115.767 34.4667 117.274 33.5864Z" fill="#FFB63D"/>
<path d="M128.455 40.0527C129.962 39.1724 129.944 36.3401 128.415 33.7266C126.886 31.1131 124.425 29.7081 122.918 30.5884C121.411 31.4687 121.428 34.301 122.957 36.9145C124.486 39.528 126.948 40.9331 128.455 40.0527Z" fill="#00C147"/>
<path d="M270.445 139.412L101.825 42.1294C101.089 41.5945 100.487 40.8968 100.065 40.0908C99.6439 39.2848 99.4147 38.3924 99.3955 37.4833C99.3955 35.6822 100.493 34.8731 101.825 35.63L270.445 132.912C271.185 133.443 271.79 134.14 272.212 134.947C272.634 135.754 272.861 136.648 272.874 137.559C272.874 139.36 271.777 140.195 270.445 139.412Z" fill="#CBCBCB"/>
<path d="M270.445 155.125L101.825 57.8687C101.085 57.3311 100.481 56.6292 100.06 55.8184C99.638 55.0076 99.4107 54.11 99.3955 53.1964C99.3955 51.3954 100.493 50.5862 101.825 51.3432L270.445 148.625C271.184 149.163 271.788 149.865 272.21 150.676C272.631 151.487 272.859 152.384 272.874 153.298C272.874 155.073 271.777 155.908 270.445 155.125Z" fill="#CBCBCB"/>
<path d="M270.445 171.047L101.825 73.6865C101.085 73.1489 100.481 72.4471 100.06 71.6363C99.638 70.8254 99.4107 69.9279 99.3955 69.0143C99.3955 67.2132 100.493 66.4041 101.825 67.1871L270.445 164.443C271.184 164.981 271.788 165.683 272.21 166.494C272.631 167.304 272.859 168.202 272.874 169.116C272.874 170.995 271.777 171.83 270.445 171.047Z" fill="#CBCBCB"/>
<path d="M270.445 186.578L101.825 89.3477C101.085 88.8101 100.481 88.1082 100.06 87.2974C99.638 86.4866 99.4107 85.589 99.3955 84.6754C99.3955 82.8744 100.493 82.0652 101.825 82.8483L270.445 180.104C271.184 180.642 271.788 181.344 272.21 182.155C272.631 182.966 272.859 183.863 272.874 184.777C272.874 186.526 271.777 187.361 270.445 186.578Z" fill="#CBCBCB"/>
<path d="M186.148 152.672L101.825 104.043C101.085 103.506 100.481 102.804 100.06 101.993C99.638 101.182 99.4107 100.285 99.3955 99.3712C99.3955 97.5702 100.493 96.761 101.825 97.5441L186.148 146.172C186.884 146.707 187.486 147.405 187.907 148.211C188.329 149.017 188.558 149.909 188.577 150.818C188.577 152.619 187.48 153.455 186.148 152.672Z" fill="#CBCBCB"/>
<path d="M361.925 330.009L246.072 263.188C244.833 262.288 243.822 261.112 243.119 259.752C242.416 258.392 242.041 256.887 242.023 255.357V179.661C242.023 176.659 243.852 175.302 246.072 176.581L361.925 243.611C363.177 244.5 364.199 245.674 364.907 247.035C365.616 248.397 365.99 249.907 366 251.442V327.138C366 329.93 364.171 331.314 361.925 330.009Z" fill="#CBCBCB"/>
<path d="M249.849 192.407C250.816 191.845 250.817 190.042 249.851 188.381C248.884 186.72 247.316 185.829 246.348 186.391C245.381 186.953 245.38 188.756 246.346 190.417C247.313 192.078 248.881 192.969 249.849 192.407Z" fill="#FF544D"/>
<path d="M259.424 195.142C260.395 194.574 260.392 192.762 259.416 191.095C258.44 189.427 256.862 188.535 255.89 189.103C254.919 189.67 254.922 191.482 255.898 193.15C256.874 194.817 258.452 195.709 259.424 195.142Z" fill="#FFB63D"/>
<path d="M266.624 199.278C267.596 198.711 267.592 196.899 266.617 195.231C265.641 193.563 264.063 192.672 263.091 193.239C262.12 193.807 262.123 195.619 263.099 197.286C264.074 198.954 265.653 199.846 266.624 199.278Z" fill="#00C147"/>
<path d="M357.667 263.031L249.494 200.647C249.019 200.301 248.631 199.85 248.359 199.329C248.087 198.809 247.939 198.232 247.927 197.645C247.927 196.497 248.632 195.975 249.494 196.471L357.667 258.854C358.143 259.199 358.533 259.649 358.805 260.17C359.077 260.691 359.224 261.269 359.234 261.856C359.286 263.005 358.581 263.527 357.667 263.031Z" fill="#E5E5E5"/>
<path d="M357.667 273.132L249.547 210.722C249.067 210.381 248.675 209.931 248.403 209.409C248.13 208.888 247.985 208.309 247.979 207.721C247.979 206.572 248.685 206.05 249.547 206.546L357.667 268.956C358.143 269.295 358.533 269.741 358.805 270.257C359.077 270.774 359.224 271.348 359.234 271.932C359.287 273.08 358.581 273.628 357.667 273.132Z" fill="#E5E5E5"/>
<path d="M357.667 283.338L249.547 220.928C249.071 220.589 248.681 220.143 248.409 219.627C248.136 219.11 247.989 218.536 247.979 217.952C247.979 216.804 248.685 216.256 249.547 216.752L357.667 279.162C358.146 279.503 358.538 279.953 358.811 280.475C359.083 280.997 359.228 281.575 359.234 282.163C359.287 283.312 358.581 283.834 357.667 283.338Z" fill="#E5E5E5"/>
<path d="M357.667 293.309L249.547 230.899C249.071 230.56 248.681 230.114 248.409 229.598C248.136 229.081 247.989 228.507 247.979 227.923C247.979 226.749 248.685 226.227 249.547 226.723L357.667 289.133C358.143 289.472 358.533 289.917 358.805 290.434C359.077 290.951 359.224 291.524 359.234 292.108C359.287 293.257 358.581 293.805 357.667 293.309Z" fill="#E5E5E5"/>
<path d="M303.62 271.54L249.547 240.218C249.07 239.873 248.68 239.423 248.408 238.902C248.136 238.381 247.989 237.803 247.979 237.216C247.979 236.067 248.685 235.545 249.547 236.041L303.62 267.364C304.101 267.704 304.494 268.153 304.767 268.675C305.039 269.197 305.183 269.777 305.187 270.366C305.187 271.514 304.508 272.062 303.62 271.54Z" fill="#E5E5E5"/>
<path d="M361.167 332.515L364.877 330.035V253.399L359.287 244.029L243.643 176.45L239.646 179.087L361.167 332.515Z" fill="#CBCBCB"/>
<path d="M358.424 332.358L242.572 265.537C241.325 264.643 240.306 263.468 239.598 262.108C238.89 260.747 238.513 259.239 238.497 257.706V182.01C238.497 179.008 240.325 177.651 242.572 178.93L358.424 245.96C359.673 246.851 360.691 248.025 361.395 249.387C362.099 250.749 362.469 252.258 362.473 253.791V329.487C362.473 332.28 360.671 333.663 358.424 332.358Z" fill="#F1F1F1"/>
<path d="M248.719 193.324C249.691 192.756 249.687 190.944 248.712 189.277C247.736 187.609 246.158 186.717 245.186 187.285C244.215 187.852 244.218 189.664 245.194 191.332C246.169 192.999 247.748 193.891 248.719 193.324Z" fill="#FF544D"/>
<path d="M255.92 197.487C256.891 196.919 256.888 195.107 255.912 193.44C254.937 191.772 253.358 190.88 252.387 191.448C251.415 192.015 251.419 193.827 252.394 195.495C253.37 197.162 254.948 198.054 255.92 197.487Z" fill="#FFB63D"/>
<path d="M263.094 201.649C264.066 201.082 264.063 199.27 263.087 197.602C262.111 195.935 260.533 195.043 259.561 195.61C258.59 196.178 258.593 197.99 259.569 199.657C260.544 201.325 262.123 202.217 263.094 201.649Z" fill="#00C147"/>
<path d="M354.193 265.38L246.02 202.97C245.544 202.631 245.154 202.185 244.882 201.669C244.61 201.152 244.463 200.578 244.453 199.994C244.453 198.846 245.158 198.298 246.02 198.794L354.193 261.204C354.672 261.545 355.064 261.995 355.336 262.517C355.609 263.038 355.754 263.617 355.76 264.205C355.76 265.354 355.055 265.876 354.193 265.38Z" fill="#CBCBCB"/>
<path d="M354.193 275.455L246.02 213.071C245.543 212.727 245.154 212.276 244.882 211.755C244.61 211.234 244.463 210.657 244.453 210.07C244.453 208.921 245.158 208.399 246.02 208.895L354.193 271.279C354.668 271.625 355.056 272.076 355.328 272.596C355.6 273.117 355.748 273.694 355.76 274.281C355.76 275.429 355.055 275.951 354.193 275.455Z" fill="#CBCBCB"/>
<path d="M354.193 285.687L246.02 223.277C245.544 222.938 245.154 222.493 244.882 221.976C244.61 221.459 244.463 220.886 244.453 220.302C244.453 219.127 245.158 218.605 246.02 219.101L354.193 281.511C354.669 281.85 355.058 282.296 355.331 282.812C355.603 283.329 355.75 283.903 355.76 284.487C355.76 285.661 355.055 286.183 354.193 285.687Z" fill="#CBCBCB"/>
<path d="M354.193 295.554L246.02 233.17C245.543 232.825 245.154 232.375 244.882 231.854C244.61 231.333 244.463 230.756 244.453 230.168C244.453 229.02 245.158 228.498 246.02 228.993L354.193 291.403C354.669 291.742 355.058 292.188 355.331 292.705C355.603 293.222 355.75 293.795 355.76 294.379C355.76 295.554 355.055 296.154 354.193 295.554Z" fill="#CBCBCB"/>
<path d="M300.198 273.889L246.099 242.567C245.623 242.221 245.235 241.77 244.963 241.249C244.691 240.729 244.543 240.152 244.531 239.565C244.531 238.417 245.237 237.894 246.099 238.39L300.198 269.713C300.677 270.054 301.069 270.504 301.342 271.026C301.614 271.548 301.759 272.126 301.765 272.715C301.687 273.863 300.982 274.385 300.198 273.889Z" fill="#CBCBCB"/>
</svg>
