<svg width="220" height="68" viewBox="0 0 220 68" fill="none" xmlns="http://www.w3.org/2000/svg">
<path d="M74.6094 15.1328C76.5391 15.1328 77.8828 13.6719 77.8828 11.2734V10.5156C77.8828 8.08594 76.5156 6.66406 74.6641 6.66406C73.5625 6.66406 72.7188 7.19531 72.2422 7.96875H72.2031V6.78906H70.9141V17.7266H72.2578V13.9062H72.2969C72.7578 14.6328 73.5625 15.1328 74.6094 15.1328ZM74.4766 13.9609C73.0781 13.9609 72.2344 12.8516 72.2344 11.1719V10.5547C72.2344 8.92188 73.0703 7.82031 74.4375 7.82031C75.7656 7.82031 76.5312 8.83594 76.5312 10.5625V11.1719C76.5312 12.9766 75.7031 13.9609 74.4766 13.9609ZM83.1562 6.65625C80.8594 6.65625 79.625 8.32031 79.625 10.5156V11.25C79.625 13.4766 80.8516 15.1328 83.1562 15.1328C85.4609 15.1328 86.6719 13.4766 86.6719 11.25V10.5156C86.6719 8.32031 85.4531 6.65625 83.1562 6.65625ZM83.1562 7.80469C84.5625 7.80469 85.3281 8.88281 85.3281 10.5625V11.2031C85.3281 12.8828 84.5625 13.9688 83.1562 13.9688C81.7422 13.9688 80.9688 12.875 80.9688 11.2031V10.5625C80.9688 8.88281 81.7422 7.80469 83.1562 7.80469ZM98.7266 6.78906H97.3672L95.8594 13.2812H95.7969L93.9375 6.78906H92.6562L90.8047 13.2812H90.7422L89.2344 6.78906H87.875L90.0156 15H91.4141L93.2812 8.67188H93.3125L95.1875 15H96.5781L98.7266 6.78906ZM103.336 15.1328C105.148 15.1328 106.234 14.125 106.547 12.7656H105.211C104.945 13.5312 104.32 14.0078 103.367 14.0078C102.031 14.0078 101.234 12.9375 101.234 11.375V11.2266H106.656V10.4609C106.656 8.20312 105.422 6.65625 103.273 6.65625C101.117 6.65625 99.8906 8.20312 99.8906 10.3672V11.2891C99.8906 13.625 101.195 15.1328 103.336 15.1328ZM101.234 10.1406V10.1172C101.234 8.82031 102.031 7.78125 103.281 7.78125C104.508 7.78125 105.312 8.8125 105.312 10.1172V10.1406H101.234ZM108.688 15H110.039V9.91406C110.039 8.80469 110.492 7.89844 111.945 7.89844C112.195 7.89844 112.461 7.90625 112.602 7.92969V6.70312C112.438 6.67969 112.266 6.66406 112.094 6.66406C110.93 6.66406 110.312 7.30469 110.07 7.79688H110.031V6.78906H108.688V15ZM117.211 15.1328C119.023 15.1328 120.109 14.125 120.422 12.7656H119.086C118.82 13.5312 118.195 14.0078 117.242 14.0078C115.906 14.0078 115.109 12.9375 115.109 11.375V11.2266H120.531V10.4609C120.531 8.20312 119.297 6.65625 117.148 6.65625C114.992 6.65625 113.766 8.20312 113.766 10.3672V11.2891C113.766 13.625 115.07 15.1328 117.211 15.1328ZM115.109 10.1406V10.1172C115.109 8.82031 115.906 7.78125 117.156 7.78125C118.383 7.78125 119.188 8.8125 119.188 10.1172V10.1406H115.109ZM125.516 6.66406C123.445 6.66406 122.234 8.28906 122.234 10.5234V11.2656C122.234 13.5547 123.375 15.125 125.516 15.125C126.617 15.125 127.477 14.6094 127.938 13.7656H127.969V15H129.258V3.77344H127.914V7.92969H127.875C127.461 7.20312 126.602 6.66406 125.516 6.66406ZM125.703 7.83594C127.086 7.83594 127.938 8.91406 127.938 10.5703V11.2266C127.938 12.9688 127.102 13.9531 125.727 13.9531C124.484 13.9531 123.586 13.0469 123.586 11.2188V10.5703C123.586 8.74219 124.484 7.83594 125.703 7.83594ZM138.68 15.1328C140.656 15.1328 141.953 13.6641 141.953 11.2891V10.4922C141.953 8.02344 140.609 6.66406 138.695 6.66406C137.656 6.66406 136.703 7.20312 136.281 7.91406H136.242V3.77344H134.898V15H136.188V13.7656H136.227C136.711 14.6094 137.508 15.1328 138.68 15.1328ZM138.516 13.9609C137.078 13.9609 136.227 12.9844 136.227 11.2031V10.5703C136.227 8.78906 137.086 7.83594 138.516 7.83594C139.742 7.83594 140.602 8.79688 140.602 10.5703V11.2188C140.602 12.9766 139.75 13.9609 138.516 13.9609ZM150.258 6.78906H148.828L146.602 13.5078H146.555L144.336 6.78906H142.844L145.867 15.1172L145.742 15.5625C145.508 16.4297 145.062 16.75 144.125 16.75C143.922 16.75 143.664 16.7344 143.531 16.7188V17.8125C143.758 17.8594 144.039 17.8828 144.289 17.8828C145.672 17.8828 146.477 17.3516 147.117 15.6094L147.328 15.0391C147.336 15.0312 150.18 7.05469 150.258 6.78906Z" fill="white"/>
<path d="M14.4865 27.6676L0.606028 51.8808C0.45695 52.1407 0.399161 52.4436 0.441983 52.7406C0.484805 53.0376 0.625741 53.3115 0.842054 53.5179L14.7225 66.7809C14.9688 67.0161 15.2953 67.1472 15.6348 67.1472C15.9742 67.1472 16.3007 67.0161 16.5471 66.7809L30.4275 53.5153C30.6438 53.3088 30.7848 53.0349 30.8276 52.7379C30.8704 52.4409 30.8126 52.138 30.6635 51.8781L16.7831 27.6676C16.6667 27.4646 16.4993 27.2961 16.2977 27.1789C16.0962 27.0617 15.8675 27 15.6348 27C15.402 27 15.1734 27.0617 14.9718 27.1789C14.7702 27.2961 14.6029 27.4646 14.4865 27.6676Z" fill="white" fill-opacity="0.44"/>
<path d="M4.41671 50.9673L2.73005 53.9051C2.58097 54.165 2.52318 54.4679 2.56601 54.765C2.60883 55.062 2.74976 55.3358 2.96608 55.5423L14.7223 66.7809C14.9686 67.0161 15.2951 67.1472 15.6346 67.1472C15.974 67.1472 16.3005 67.0161 16.5468 66.7809L22.6835 60.9052C22.8373 60.7581 22.9539 60.5761 23.0234 60.3742C23.0929 60.1724 23.1133 59.9568 23.0829 59.7454C23.0525 59.534 22.9722 59.333 22.8487 59.1593C22.7252 58.9856 22.5622 58.8443 22.3732 58.7472L6.16701 50.4465C5.86453 50.2911 5.51438 50.2585 5.18873 50.3554C4.86309 50.4523 4.58676 50.6713 4.41671 50.9673Z" fill="white"/>
<path d="M20.1591 46.0585L6.26539 56.5519C6.11141 56.6685 5.9845 56.8175 5.89352 56.9886C5.80253 57.1596 5.74964 57.3485 5.73853 57.5422C5.72743 57.736 5.75837 57.9298 5.82921 58.1102C5.90004 58.2906 6.00907 58.4534 6.1487 58.5871L14.7225 66.7809C14.9689 67.0161 15.2954 67.1472 15.6348 67.1472C15.9743 67.1472 16.3008 67.0161 16.5471 66.7809L28.1601 55.6813C28.4047 55.4477 28.5518 55.1292 28.5715 54.7903C28.5912 54.4515 28.482 54.1178 28.2662 53.8571L21.9677 46.2695C21.75 46.0085 21.4413 45.8412 21.1051 45.802C20.7688 45.7627 20.4303 45.8545 20.1591 46.0585Z" fill="white" fill-opacity="0.56"/>
<path d="M44.1011 33.7223H48.5352V46.6221L60.5539 33.7223H66.1894L55.6478 45.2974L66.3538 60.1655H61.0817L52.3646 48.5878L48.5352 52.7488V60.1655H44.1011V33.7223Z" fill="white"/>
<path d="M84.6313 60.1655H80.123V49.7228L70.3584 33.7223H75.2036L82.3772 45.7407L89.5534 33.7223H94.3986L84.6313 49.7228V60.1655Z" fill="white"/>
<path d="M107.396 54.1109C108.598 55.5246 110.226 56.2306 112.278 56.2288C114.331 56.227 115.963 55.521 117.174 54.1109C118.374 52.6972 118.975 50.7804 118.977 48.3607V33.7223H123.409V48.5504C123.409 52.3589 122.369 55.2905 120.29 57.3452C118.211 59.3999 115.544 60.4281 112.289 60.4299C109.034 60.4299 106.367 59.4017 104.288 57.3452C102.209 55.2887 101.17 52.3571 101.172 48.5504V33.7223H105.603V48.3527C105.596 50.7813 106.194 52.7007 107.396 54.1109Z" fill="white"/>
<path d="M213.335 40.0386C212.134 38.6249 210.507 37.9189 208.452 37.9207C206.398 37.9225 204.77 38.6285 203.57 40.0386C202.371 41.4524 201.772 43.3691 201.772 45.7888V60.4299H197.333V45.5992C197.333 41.7907 198.372 38.8591 200.451 36.8043C202.53 34.7496 205.197 33.7223 208.452 33.7223C211.709 33.7223 214.376 34.7496 216.453 36.8043C218.531 38.8591 219.57 41.7907 219.572 45.5992V60.4299H215.138V45.7888C215.138 43.3691 214.537 41.4524 213.335 40.0386Z" fill="white"/>
<path d="M147.512 37.8059H132.712V33.7223H153.662V37.1943L138.411 55.919V56.0338H153.888V60.1575H132.224V56.7229L147.512 37.9207V37.8059Z" fill="white"/>
<path d="M168.259 54.1483L165.631 60.1655H160.897L172.465 33.725H177.199L188.769 60.1655H184.035L181.405 54.1483H168.259ZM179.604 50.0246L174.83 39.1306L170.057 50.0246H179.604Z" fill="white"/>
</svg>
