<svg width="64" height="64" viewBox="0 0 64 64" fill="none" xmlns="http://www.w3.org/2000/svg">
<path fill-rule="evenodd" clip-rule="evenodd" d="M60 32C60 47.464 47.464 60 32 60C16.536 60 4 47.464 4 32C4 16.536 16.536 4 32 4C47.464 4 60 16.536 60 32ZM64 32C64 49.6731 49.6731 64 32 64C14.3269 64 0 49.6731 0 32C0 14.3269 14.3269 0 32 0C49.6731 0 64 14.3269 64 32ZM15.0296 46.1421L29.1716 32.0001L15.0293 17.8579L17.8577 15.0294L32 29.1717L46.1423 15.0294L48.9707 17.8578L34.8284 32.0001L48.9704 46.1421L46.142 48.9706L32 34.8286L17.858 48.9705L15.0296 46.1421Z" fill="#294446"/>
</svg>
