<svg width="74" height="30" viewBox="0 0 74 30" fill="none" xmlns="http://www.w3.org/2000/svg">
<path d="M29.4986 29.7135V0H22.5032L14.7493 12.5646L6.99537 0H0V29.7135H6.36326V10.4422L14.5807 23.0067H14.7493L23.051 10.3148V29.7135H29.4986Z" fill="black" fill-opacity="0.26"/>
<path d="M40.3462 10.7711V6.47329H35.2893V10.7711H40.3462ZM40.2198 29.7135V12.6495H35.4157V29.7135H40.2198Z" fill="black" fill-opacity="0.26"/>
<path d="M60.2501 29.7135V18.6664C60.2501 16.6926 59.7444 15.1433 58.733 14.0184C57.7427 12.8935 56.331 12.3311 54.4979 12.3311C53.8868 12.3311 53.339 12.4054 52.8544 12.5539C52.3697 12.7025 51.9273 12.9041 51.5269 13.1588C51.1266 13.4135 50.7579 13.7106 50.4207 14.0502C50.1047 14.3686 49.8097 14.7082 49.5358 15.069V12.6495H44.7317V29.7135H49.5358V20.1946C49.5358 19.0485 49.7992 18.1889 50.3259 17.6158C50.8737 17.0216 51.6112 16.7244 52.5383 16.7244C53.4654 16.7244 54.1818 17.0216 54.6875 17.6158C55.1932 18.1889 55.446 19.0485 55.446 20.1946V29.7135H60.2501Z" fill="black" fill-opacity="0.26"/>
<path d="M73.9368 29.0131V25.1291C73.1993 25.5324 72.4092 25.734 71.5664 25.734C70.5339 25.734 70.0177 25.1822 70.0177 24.0785V16.7881H74V12.6495H70.0177V8.28794H65.2136V12.6495H63.1909V16.7881H65.2136V24.8744C65.2136 25.8719 65.3295 26.6997 65.5613 27.3576C65.8141 27.9943 66.1513 28.5143 66.5727 28.9176C67.0152 29.3208 67.5314 29.5967 68.1214 29.7453C68.7324 29.9151 69.4066 30 70.1441 30C70.9448 30 71.6506 29.9045 72.2617 29.7135C72.8727 29.5437 73.4311 29.3102 73.9368 29.0131Z" fill="black" fill-opacity="0.26"/>
</svg>
