<svg width="16" height="16" viewBox="0 0 16 16" fill="none" xmlns="http://www.w3.org/2000/svg">
<circle cx="8" cy="8" r="8" fill="black" fill-opacity="0.08"/>
<path fill-rule="evenodd" clip-rule="evenodd" d="M8.22735 2.28523C8.17537 2.21097 8.09043 2.16675 7.99979 2.16675C7.90914 2.16675 7.8242 2.21097 7.77222 2.28523L4.43889 7.84079C4.39093 7.9093 4.37639 7.99577 4.39931 8.0762C4.42223 8.15663 4.48016 8.22246 4.55703 8.2554L7.89036 9.92207C7.96024 9.95201 8.03933 9.95201 8.10921 9.92207L11.4425 8.2554C11.5194 8.22246 11.5773 8.15663 11.6003 8.0762C11.6232 7.99577 11.6086 7.9093 11.5607 7.84079L8.22735 2.28523ZM7.99979 9.36453L5.09001 7.87939L7.99979 2.92891L10.9096 7.87939L7.99979 9.36453ZM4.77587 8.85587C4.65667 8.80479 4.51798 8.84298 4.44174 8.94789C4.3655 9.0528 4.372 9.19651 4.4574 9.29411L7.79073 13.7386C7.84348 13.7988 7.91968 13.8334 7.99978 13.8334C8.07988 13.8334 8.15609 13.7988 8.20883 13.7386L11.5422 9.29411C11.6276 9.19651 11.6341 9.0528 11.5578 8.94789C11.4816 8.84298 11.3429 8.80479 11.2237 8.85587L7.99978 10.4756L4.77587 8.85587ZM7.99978 13.1338L5.68011 9.84783L7.89036 11.0332C7.96024 11.0631 8.03933 11.0631 8.10921 11.0332L10.3195 9.84783L7.99978 13.1338Z" fill="black" fill-opacity="0.54"/>
</svg>
