<svg width="16" height="16" viewBox="0 0 16 16" fill="none" xmlns="http://www.w3.org/2000/svg">
<circle cx="8" cy="8" r="8" fill="black" fill-opacity="0.08"/>
<path d="M10.8566 6.1158C10.7514 6.05451 10.6319 6.02222 10.5101 6.02222C10.3884 6.02222 10.2688 6.05451 10.1637 6.1158L8.5538 7.04447L7.45542 7.67852L5.84555 8.6072C5.74037 8.66848 5.62081 8.70077 5.49907 8.70077C5.37733 8.70077 5.25777 8.66848 5.15258 8.6072L3.88921 7.87887C3.78467 7.8169 3.69788 7.72904 3.63719 7.62376C3.5765 7.51848 3.54396 7.39934 3.54272 7.27782V5.81645C3.54232 5.69461 3.57416 5.57483 3.63501 5.46927C3.69587 5.3637 3.78356 5.27612 3.88921 5.21541L5.15258 4.48708C5.25777 4.42579 5.37733 4.3935 5.49907 4.3935C5.62081 4.3935 5.74037 4.42579 5.84555 4.48708L7.10893 5.21541C7.21457 5.27612 7.30227 5.3637 7.36312 5.46927C7.42398 5.57483 7.45582 5.69461 7.45542 5.81645V6.75927L8.5538 6.12287V5.18005C8.55403 5.05856 8.52209 4.93917 8.46123 4.83402C8.40038 4.72886 8.31277 4.64169 8.20731 4.58136L5.84555 3.2237C5.74037 3.16242 5.62081 3.13013 5.49907 3.13013C5.37733 3.13013 5.25777 3.16242 5.15258 3.2237L2.79554 4.58843C2.68955 4.64796 2.60122 4.7345 2.53953 4.83925C2.47784 4.94399 2.445 5.06321 2.44434 5.18477V7.91423C2.44411 8.03572 2.47605 8.15511 2.5369 8.26026C2.59776 8.36541 2.68537 8.45258 2.79082 8.51291L5.14787 9.87764C5.25306 9.93893 5.37262 9.97122 5.49435 9.97122C5.61609 9.97122 5.73565 9.93893 5.84084 9.87764L7.4507 8.94897L8.54909 8.31257L10.1589 7.38389C10.2647 7.32442 10.3841 7.29318 10.5054 7.29318C10.6268 7.29318 10.7461 7.32442 10.8519 7.38389L12.1153 8.11457C12.2208 8.1749 12.3084 8.26207 12.3692 8.36723C12.4301 8.47238 12.462 8.59177 12.4618 8.71326V10.1723C12.4598 10.2921 12.4274 10.4095 12.3677 10.5134C12.3079 10.6173 12.2227 10.7043 12.12 10.7663L10.8566 11.4946C10.7514 11.5559 10.6319 11.5882 10.5101 11.5882C10.3884 11.5882 10.2688 11.5559 10.1637 11.4946L8.90028 10.7663C8.79575 10.7043 8.70895 10.6164 8.64826 10.5111C8.58757 10.4059 8.55504 10.2867 8.5538 10.1652V9.22239L7.45542 9.87057V10.8134C7.45666 10.9349 7.48919 11.054 7.54988 11.1593C7.61057 11.2646 7.69737 11.3525 7.8019 11.4144L10.1589 12.7792C10.2647 12.8386 10.3841 12.8699 10.5054 12.8699C10.6268 12.8699 10.7461 12.8386 10.8519 12.7792L13.209 11.4144C13.3135 11.3525 13.4003 11.2646 13.461 11.1593C13.5217 11.054 13.5542 10.9349 13.5554 10.8134V8.07922C13.5542 7.9577 13.5217 7.83856 13.461 7.73328C13.4003 7.628 13.3135 7.54014 13.209 7.47817L10.8566 6.1158Z" fill="black" fill-opacity="0.54"/>
</svg>
