<svg width="222" height="36" viewBox="0 0 222 36" fill="none" xmlns="http://www.w3.org/2000/svg">
<path fill-rule="evenodd" clip-rule="evenodd" d="M38 3L43 8L30 21H25V16L38 3V3Z" stroke="#294446" stroke-width="2" stroke-linecap="round" stroke-linejoin="round"/>
<path d="M19.548 27.24C19.116 28.376 18.38 29.512 17.62 30.232C17.78 30.456 18.028 30.976 18.116 31.2C18.34 30.976 18.564 30.728 18.78 30.448V34.672H19.684V29.072C19.972 28.568 20.22 28.04 20.428 27.528L19.548 27.24ZM23.196 33.544V31.952H24.924V31.056H23.196V29.664H25.14V28.768H23.308L23.66 28.368C23.26 28.016 22.444 27.52 21.852 27.208L21.22 27.888C21.644 28.128 22.164 28.464 22.556 28.768H20.284V29.664H22.228V31.056H20.54V31.952H22.228V33.544H20.1V34.44H25.26V33.544H23.196ZM29.636 27.616H26.1V28.48H29.636V27.616ZM28.556 29.928V30.944H27.268V29.928H28.556ZM29.468 31.8V29.08H26.356V31.112C26.356 32.032 26.316 33.28 25.788 34.136C25.996 34.248 26.388 34.544 26.54 34.704C27.036 33.92 27.204 32.776 27.252 31.8H29.468ZM33.412 29.92H30.844V28.88C31.708 28.672 32.628 28.376 33.364 28.024L32.524 27.304C32.06 27.584 31.316 27.872 30.572 28.088L29.916 27.936V30.144C29.916 31.328 29.804 32.912 28.692 34.04C28.916 34.152 29.268 34.48 29.396 34.68C30.46 33.616 30.756 32.064 30.828 30.84H31.756V34.696H32.7V30.84H33.412V29.92ZM35.668 27.672V28.64H37.492C37.516 28.912 37.548 29.2 37.604 29.504L37.116 29.416C36.676 31.52 35.724 33.064 34.06 33.904C34.308 34.088 34.756 34.48 34.932 34.68C36.324 33.848 37.284 32.52 37.884 30.728C38.324 32.16 39.172 33.672 40.828 34.672C40.996 34.424 41.388 34.008 41.596 33.84C38.652 32.104 38.436 29.184 38.436 27.672H35.668ZM46.06 28.888V27.24H45.044V28.888H42.596V29.864H45.004C44.868 31.264 44.332 32.88 42.348 33.96C42.58 34.136 42.94 34.496 43.092 34.736C45.34 33.464 45.9 31.52 46.028 29.864H48.268C48.14 32.24 47.98 33.288 47.74 33.536C47.628 33.64 47.532 33.664 47.364 33.664C47.156 33.664 46.684 33.664 46.18 33.624C46.364 33.896 46.492 34.32 46.508 34.608C46.996 34.632 47.492 34.632 47.788 34.592C48.132 34.544 48.364 34.456 48.604 34.144C48.956 33.728 49.116 32.528 49.276 29.344C49.292 29.216 49.3 28.888 49.3 28.888H46.06Z" fill="#294446"/>
<path d="M67.5 24L73.5 18L67.5 12" stroke="black" stroke-opacity="0.26" stroke-width="2" stroke-linecap="round" stroke-linejoin="round"/>
<path fill-rule="evenodd" clip-rule="evenodd" d="M108 16H110V20H104V16H106V17H108V16ZM108 15H111V21H103V15H106H108Z" fill="#294446"/>
<path fill-rule="evenodd" clip-rule="evenodd" d="M116 16H118V20H112V16H114V17H116V16ZM116 15H119V21H111V15H114H116Z" fill="#294446"/>
<path fill-rule="evenodd" clip-rule="evenodd" d="M112 10H114V14H108V10H110V11H112V10ZM112 9H115V15H107V9H110H112Z" fill="#294446"/>
<path d="M101 20V7L111 3L121 7V20" stroke="#294446" stroke-width="2" stroke-linecap="round" stroke-linejoin="round"/>
<path d="M94.956 31.728H93.972V30.824H94.956V31.728ZM96.676 30.824V30.568C96.98 30.8 97.308 31 97.66 31.168C97.804 30.912 98.092 30.536 98.316 30.352C97.86 30.168 97.444 29.92 97.068 29.616C97.42 29.368 97.804 29.056 98.132 28.752L97.436 28.256C97.212 28.528 96.86 28.856 96.532 29.12C96.412 28.984 96.292 28.848 96.18 28.704C96.508 28.464 96.876 28.152 97.204 27.856L96.484 27.344C96.3 27.568 96.036 27.848 95.772 28.088C95.612 27.816 95.484 27.528 95.372 27.232L94.516 27.472C94.868 28.416 95.348 29.248 95.972 29.92H93.076C93.636 29.344 94.092 28.632 94.372 27.792L93.74 27.496L93.572 27.528H91.484V28.344H93.116C92.972 28.6 92.804 28.84 92.612 29.064C92.388 28.872 92.084 28.64 91.844 28.472L91.244 28.968C91.508 29.168 91.828 29.44 92.036 29.648C91.628 30 91.172 30.28 90.708 30.472C90.892 30.648 91.156 30.976 91.284 31.192C91.652 31.016 92.012 30.808 92.348 30.56V30.824H93.02V31.728H91.308V32.6H92.892C92.692 33.136 92.212 33.632 91.108 33.968C91.308 34.144 91.596 34.512 91.716 34.728C93.196 34.232 93.724 33.44 93.9 32.6H94.956V33.472C94.956 34.36 95.172 34.64 96.036 34.64H96.908C97.612 34.64 97.86 34.32 97.956 33.264C97.684 33.208 97.3 33.048 97.1 32.888C97.068 33.64 97.028 33.8 96.82 33.8H96.204C95.98 33.8 95.948 33.752 95.948 33.464V32.6H97.652V31.728H95.948V30.824H96.676ZM106.284 31.096V30.24H104.116V29.472H106.02V28.632H105.02C105.252 28.328 105.524 27.928 105.78 27.52L104.804 27.224C104.652 27.608 104.372 28.136 104.14 28.488L104.548 28.632H102.764L103.188 28.448C103.084 28.096 102.788 27.6 102.492 27.232L101.684 27.568C101.924 27.896 102.148 28.312 102.276 28.632H101.476V29.472H103.164V30.24H101.204V31.096H103.06C102.884 31.672 102.42 32.272 101.204 32.72C101.42 32.88 101.716 33.208 101.836 33.408C102.876 32.952 103.46 32.376 103.78 31.776C104.188 32.56 104.804 33.112 105.708 33.424C105.836 33.176 106.108 32.808 106.308 32.624C105.356 32.376 104.716 31.848 104.364 31.096H106.284ZM101.084 28.616C100.812 28.24 100.228 27.744 99.748 27.408L99.044 27.984C99.516 28.336 100.084 28.864 100.332 29.248L101.084 28.616ZM100.884 30.328H99.036V31.2H99.956V32.888C99.604 33.16 99.204 33.424 98.86 33.624L99.324 34.616C99.764 34.28 100.116 33.968 100.468 33.656C100.988 34.28 101.644 34.504 102.628 34.544C103.58 34.584 105.188 34.568 106.148 34.52C106.196 34.248 106.34 33.784 106.444 33.56C105.38 33.64 103.58 33.664 102.644 33.624C101.812 33.592 101.212 33.376 100.884 32.84V30.328ZM109.388 27.84C109.1 27.632 108.556 27.368 108.14 27.224L107.652 27.872C108.06 28.04 108.612 28.336 108.868 28.56L109.388 27.84ZM110.668 30.848H111.604V31.216H110.668V30.848ZM111.604 29.168H110.668V28.8H111.604V29.168ZM111.604 30.192H110.668V29.824H111.604V30.192ZM114.468 32.464H111.268V31.968H114.34V31.216H112.508V30.848H113.876V30.192H112.508V29.824H113.868V29.168H112.508V28.8H114.148V28.056H112.668C112.804 27.856 112.94 27.632 113.076 27.4L112.036 27.232C111.956 27.48 111.828 27.776 111.692 28.056H110.916C111.036 27.864 111.14 27.664 111.236 27.464L110.316 27.192C109.98 27.928 109.404 28.656 108.78 29.144L108.804 29.112C108.516 28.912 107.956 28.672 107.556 28.528L107.068 29.168C107.484 29.336 108.036 29.616 108.3 29.816L108.716 29.24C108.924 29.408 109.26 29.712 109.42 29.88C109.524 29.792 109.636 29.688 109.74 29.584V31.968H110.3V32.464H107.204V33.32H110.3V34.696H111.268V33.32H114.468V32.464ZM108.892 29.808C108.348 30.424 107.716 31.064 107.276 31.432L107.94 32.144C108.444 31.6 108.948 31.008 109.404 30.44L108.892 29.808ZM117.516 27.856V28.672H118.644V29.208H119.524V28.672H120.708V29.208H121.604V28.672H122.676V27.856H121.604V27.272H120.708V27.856H119.524V27.272H118.644V27.856H117.516ZM120.964 32.84V32.4H121.724V32.84H120.964ZM119.492 32.84V32.4H120.212V32.84H119.492ZM120.212 31.328V31.784H119.492V31.328H120.212ZM121.724 31.328V31.784H120.964V31.328H121.724ZM122.532 30.64H118.7V34.68H119.492V33.464H120.212V34.664H120.964V33.464H121.724V33.88C121.724 33.96 121.708 33.976 121.636 33.976C121.556 33.984 121.356 33.984 121.132 33.976C121.228 34.184 121.324 34.48 121.34 34.696C121.756 34.704 122.044 34.688 122.26 34.568C122.484 34.44 122.532 34.248 122.532 33.888V30.64ZM122.716 29.424H117.556V31.168C117.556 32.048 117.508 33.256 116.948 34.112V29.048C117.18 28.536 117.388 28.008 117.556 27.496L116.676 27.232C116.324 28.408 115.732 29.576 115.092 30.32C115.244 30.568 115.476 31.12 115.548 31.344C115.716 31.152 115.884 30.928 116.044 30.688V34.688H116.948V34.144C117.132 34.256 117.484 34.56 117.62 34.72C118.3 33.752 118.42 32.224 118.42 31.184V30.24H122.716V29.424ZM127.628 31.264V29.544H129.436V31.264H127.628ZM124.82 31.264V29.544H126.62V31.264H124.82ZM127.628 28.608V27.224H126.62V28.608H123.86V32.64H124.82V32.2H126.62V34.696H127.628V32.2H129.436V32.6H130.436V28.608H127.628Z" fill="#294446"/>
<path d="M148.5 24L154.5 18L148.5 12" stroke="black" stroke-opacity="0.26" stroke-width="2" stroke-linecap="round" stroke-linejoin="round"/>
<path fill-rule="evenodd" clip-rule="evenodd" d="M183 6C183 4.89543 183.895 4 185 4H197C198.105 4 199 4.89543 199 6V16C199 17.1046 198.105 18 197 18H195.563C195.162 19.0243 194.166 19.75 193 19.75C191.834 19.75 190.838 19.0243 190.437 18H185.563C185.162 19.0243 184.166 19.75 183 19.75C181.834 19.75 180.838 19.0243 180.437 18H180C178.895 18 178 17.1046 178 16V10.9142C178 10.3838 178.211 9.87507 178.586 9.5L180.5 7.58579C180.875 7.21071 181.384 7 181.914 7H183V6ZM197 6H185V9H181.914L180 10.9142L180 16H197V6ZM181 11.5L182.5 10H184V13H181V11.5Z" fill="black" fill-opacity="0.26"/>
<path d="M175.956 31.728H174.972V30.824H175.956V31.728ZM177.676 30.824V30.568C177.98 30.8 178.308 31 178.66 31.168C178.804 30.912 179.092 30.536 179.316 30.352C178.86 30.168 178.444 29.92 178.068 29.616C178.42 29.368 178.804 29.056 179.132 28.752L178.436 28.256C178.212 28.528 177.86 28.856 177.532 29.12C177.412 28.984 177.292 28.848 177.18 28.704C177.508 28.464 177.876 28.152 178.204 27.856L177.484 27.344C177.3 27.568 177.036 27.848 176.772 28.088C176.612 27.816 176.484 27.528 176.372 27.232L175.516 27.472C175.868 28.416 176.348 29.248 176.972 29.92H174.076C174.636 29.344 175.092 28.632 175.372 27.792L174.74 27.496L174.572 27.528H172.484V28.344H174.116C173.972 28.6 173.804 28.84 173.612 29.064C173.388 28.872 173.084 28.64 172.844 28.472L172.244 28.968C172.508 29.168 172.828 29.44 173.036 29.648C172.628 30 172.172 30.28 171.708 30.472C171.892 30.648 172.156 30.976 172.284 31.192C172.652 31.016 173.012 30.808 173.348 30.56V30.824H174.02V31.728H172.308V32.6H173.892C173.692 33.136 173.212 33.632 172.108 33.968C172.308 34.144 172.596 34.512 172.716 34.728C174.196 34.232 174.724 33.44 174.9 32.6H175.956V33.472C175.956 34.36 176.172 34.64 177.036 34.64H177.908C178.612 34.64 178.86 34.32 178.956 33.264C178.684 33.208 178.3 33.048 178.1 32.888C178.068 33.64 178.028 33.8 177.82 33.8H177.204C176.98 33.8 176.948 33.752 176.948 33.464V32.6H178.652V31.728H176.948V30.824H177.676ZM187.284 31.096V30.24H185.116V29.472H187.02V28.632H186.02C186.252 28.328 186.524 27.928 186.78 27.52L185.804 27.224C185.652 27.608 185.372 28.136 185.14 28.488L185.548 28.632H183.764L184.188 28.448C184.084 28.096 183.788 27.6 183.492 27.232L182.684 27.568C182.924 27.896 183.148 28.312 183.276 28.632H182.476V29.472H184.164V30.24H182.204V31.096H184.06C183.884 31.672 183.42 32.272 182.204 32.72C182.42 32.88 182.716 33.208 182.836 33.408C183.876 32.952 184.46 32.376 184.78 31.776C185.188 32.56 185.804 33.112 186.708 33.424C186.836 33.176 187.108 32.808 187.308 32.624C186.356 32.376 185.716 31.848 185.364 31.096H187.284ZM182.084 28.616C181.812 28.24 181.228 27.744 180.748 27.408L180.044 27.984C180.516 28.336 181.084 28.864 181.332 29.248L182.084 28.616ZM181.884 30.328H180.036V31.2H180.956V32.888C180.604 33.16 180.204 33.424 179.86 33.624L180.324 34.616C180.764 34.28 181.116 33.968 181.468 33.656C181.988 34.28 182.644 34.504 183.628 34.544C184.58 34.584 186.188 34.568 187.148 34.52C187.196 34.248 187.34 33.784 187.444 33.56C186.38 33.64 184.58 33.664 183.644 33.624C182.812 33.592 182.212 33.376 181.884 32.84V30.328ZM189.724 31.44C189.268 32.376 188.692 33.384 188.292 33.992L189.124 34.584C189.572 33.8 190.044 32.88 190.444 32.032L189.724 31.44ZM190.052 30.176C189.732 29.904 189.068 29.592 188.572 29.416L188.068 30.128C188.572 30.344 189.204 30.696 189.508 30.968L190.052 30.176ZM193.916 30.872V31.2H191.956V30.848H191.284C191.86 30.696 192.404 30.512 192.9 30.28C193.468 30.552 194.092 30.728 194.748 30.872H193.916ZM191.908 32.544C191.94 32.352 191.948 32.16 191.956 31.992H193.916V32.544H191.908ZM193.644 28.768C193.452 28.984 193.22 29.176 192.948 29.344C192.668 29.192 192.404 29 192.148 28.768H193.644ZM195.46 28.768V27.944H193.42V27.232H192.436V27.944H190.428V28C190.092 27.744 189.5 27.44 189.044 27.264L188.524 27.968C189.028 28.184 189.652 28.552 189.94 28.832L190.428 28.136V28.768H191.052C191.356 29.176 191.692 29.496 192.052 29.768C191.468 29.976 190.796 30.12 190.1 30.216C190.244 30.4 190.468 30.8 190.548 31.016C190.716 30.984 190.884 30.944 191.044 30.904V31.776C191.044 32.456 190.94 33.568 190.044 34.272C190.276 34.376 190.636 34.632 190.804 34.776C191.3 34.376 191.58 33.856 191.748 33.328H193.916V34.68H194.852V30.896L195.14 30.952C195.228 30.656 195.444 30.312 195.652 30.096C194.996 30.008 194.388 29.896 193.82 29.72C194.172 29.448 194.476 29.136 194.716 28.768H195.46ZM197.692 27.944L197.732 28.976C197.94 28.944 198.22 28.92 198.38 28.912C198.748 28.888 199.436 28.864 199.756 28.848C199.572 29.224 199.34 29.768 199.116 30.296C197.508 30.368 196.38 31.312 196.38 32.552C196.38 33.36 196.908 33.848 197.612 33.848C198.156 33.848 198.54 33.624 198.86 33.144C199.14 32.704 199.476 31.904 199.764 31.224C200.452 31.32 201.092 31.56 201.66 31.872C201.396 32.6 200.836 33.36 199.628 33.88L200.476 34.576C201.548 34.016 202.156 33.312 202.508 32.408C202.756 32.592 202.988 32.776 203.196 32.968L203.66 31.856C203.428 31.696 203.14 31.512 202.804 31.32C202.884 30.872 202.924 30.376 202.956 29.84L201.908 29.72C201.932 29.96 201.932 30.28 201.908 30.592C201.9 30.68 201.892 30.768 201.884 30.864C201.364 30.64 200.772 30.448 200.148 30.352C200.436 29.672 200.74 28.976 200.948 28.632C201.012 28.52 201.108 28.416 201.22 28.296L200.58 27.8C200.444 27.856 200.236 27.904 200.036 27.912C199.66 27.944 198.812 27.984 198.356 27.984C198.18 27.984 197.908 27.968 197.692 27.944ZM197.316 32.4C197.316 31.896 197.82 31.352 198.716 31.216C198.492 31.72 198.276 32.224 198.068 32.52C197.924 32.72 197.812 32.8 197.652 32.8C197.468 32.8 197.316 32.664 197.316 32.4Z" fill="black" fill-opacity="0.26"/>
</svg>
