<svg xmlns="http://www.w3.org/2000/svg" viewBox="0 0 114.68 150.33"><defs><style>.cls-1{fill:#b4d1d2;}.cls-2{fill:#0d5661;fill-opacity:0.56;}</style></defs><title>Monogram</title><g id="レイヤー_5" data-name="レイヤー 5"><path class="cls-1" d="M53,2.5.67,93.16a5,5,0,0,0,.89,6.12L53.9,149a5,5,0,0,0,6.88,0l52.34-49.67a5,5,0,0,0,.89-6.12L61.67,2.5A5,5,0,0,0,53,2.5Z"/><path class="cls-2" d="M15.05,89.74l-6.37,11a5,5,0,0,0,.89,6.13L53.9,149a5,5,0,0,0,6.88,0L83.92,127a5,5,0,0,0-1.17-8.08L21.65,87.78A5,5,0,0,0,15.05,89.74Z"/><path class="cls-2" d="M74.4,71.35,22,110.64a5,5,0,0,0-.44,7.63L53.9,149a5,5,0,0,0,6.88,0l43.79-41.55a5,5,0,0,0,.4-6.83L81.24,72.15A5,5,0,0,0,74.4,71.35Z"/></g></svg>