<?xml version="1.0" encoding="utf-8"?>
<!-- Generator: Adobe Illustrator 24.1.0, SVG Export Plug-In . SVG Version: 6.00 Build 0)  -->
<svg version="1.1" id="レイヤー_1" xmlns="http://www.w3.org/2000/svg" xmlns:xlink="http://www.w3.org/1999/xlink" x="0px"
	 y="0px" viewBox="0 0 25 25" style="enable-background:new 0 0 25 25;" xml:space="preserve">
<style type="text/css">
	.st0{fill:#2F5457;}
</style>
<path class="st0" d="M19.5,3.5h-2v-1c0-0.6-0.4-1-1-1s-1,0.4-1,1v1h-6v-1c0-0.6-0.4-1-1-1s-1,0.4-1,1v1h-2c-1.7,0-3,1.3-3,3v14
	c0,1.7,1.3,3,3,3h14c1.7,0,3-1.3,3-3v-14C22.5,4.8,21.2,3.5,19.5,3.5z M5.5,5.5h2v1c0,0.6,0.4,1,1,1s1-0.4,1-1v-1h6v1
	c0,0.6,0.4,1,1,1s1-0.4,1-1v-1h2c0.6,0,1,0.4,1,1v3h-16v-3C4.5,5.9,4.9,5.5,5.5,5.5z M19.5,21.5h-14c-0.6,0-1-0.4-1-1v-9h16v9
	C20.5,21.1,20.1,21.5,19.5,21.5z"/>
</svg>
