<svg width="16" height="16" viewBox="0 0 16 16" fill="none" xmlns="http://www.w3.org/2000/svg">
<path d="M12.334 6H9.00065C8.55862 6 8.1347 6.16857 7.82214 6.46863C7.50958 6.76869 7.33398 7.17565 7.33398 7.6V12.4C7.33398 12.8243 7.50958 13.2313 7.82214 13.5314C8.1347 13.8314 8.55862 14 9.00065 14H12.334C12.776 14 13.1999 13.8314 13.5125 13.5314C13.8251 13.2313 14.0007 12.8243 14.0007 12.4V7.6C14.0007 7.17565 13.8251 6.76869 13.5125 6.46863C13.1999 6.16857 12.776 6 12.334 6V6Z" stroke="#000000" stroke-width="1.5" stroke-miterlimit="10" stroke-linecap="round" stroke-linejoin="round"/>
<path d="M5.15152 12.6667H3.57576C3.15784 12.6667 2.75704 12.4938 2.46153 12.186C2.16602 11.8783 2 11.4609 2 11.0256V3.64103C2 3.2058 2.16602 2.7884 2.46153 2.48065C2.75704 2.17289 3.15784 2 3.57576 2H9.09091C9.50883 2 9.90963 2.17289 10.2051 2.48065C10.5006 2.7884 10.6667 3.2058 10.6667 3.64103" stroke="#000000" stroke-width="1.5" stroke-miterlimit="10" stroke-linecap="round" stroke-linejoin="round"/>
</svg>
