<svg width="12" height="12" viewBox="0 0 12 12" fill="none" xmlns="http://www.w3.org/2000/svg">
<path d="M8.57107 4.30417C8.4764 4.24901 8.36879 4.21995 8.25923 4.21995C8.14967 4.21995 8.04206 4.24901 7.94739 4.30417L6.49852 5.13998L5.50997 5.71062L4.0611 6.54643C3.96643 6.60159 3.85882 6.63065 3.74926 6.63065C3.63969 6.63065 3.53209 6.60159 3.43742 6.54643L2.30038 5.89093C2.2063 5.83516 2.12819 5.75608 2.07356 5.66133C2.01894 5.56658 1.98966 5.45935 1.98855 5.34999V4.03476C1.98818 3.9251 2.01684 3.8173 2.07161 3.72229C2.12638 3.62728 2.20531 3.54846 2.30038 3.49382L3.43742 2.83832C3.53209 2.78317 3.63969 2.7541 3.74926 2.7541C3.85882 2.7541 3.96643 2.78317 4.0611 2.83832L5.19814 3.49382C5.29321 3.54846 5.37214 3.62728 5.42691 3.72229C5.48168 3.8173 5.51033 3.9251 5.50997 4.03476V4.8833L6.49852 4.31053V3.462C6.49872 3.35265 6.46998 3.2452 6.41521 3.15057C6.36044 3.05593 6.28159 2.97747 6.18668 2.92318L4.0611 1.70128C3.96643 1.64613 3.85882 1.61707 3.74926 1.61707C3.63969 1.61707 3.53209 1.64613 3.43742 1.70128L1.31608 2.92954C1.22069 2.98312 1.1412 3.061 1.08568 3.15527C1.03016 3.24954 1.0006 3.35684 1 3.46624V5.92275C0.999797 6.0321 1.02854 6.13955 1.08331 6.23418C1.13808 6.32882 1.21693 6.40728 1.31184 6.46157L3.43318 7.68983C3.52785 7.74499 3.63545 7.77405 3.74502 7.77405C3.85458 7.77405 3.96219 7.74499 4.05685 7.68983L5.50573 6.85402L6.49427 6.28126L7.94315 5.44545C8.03837 5.39193 8.14576 5.36382 8.25499 5.36382C8.36422 5.36382 8.47161 5.39193 8.56682 5.44545L9.70386 6.10307C9.79877 6.15736 9.87762 6.23582 9.93239 6.33046C9.98716 6.42509 10.0159 6.53254 10.0157 6.64189V7.955C10.0139 8.06287 9.98479 8.16853 9.93099 8.26204C9.87718 8.35555 9.80049 8.43385 9.70811 8.48958L8.57107 9.14507C8.4764 9.20023 8.36879 9.22929 8.25923 9.22929C8.14967 9.22929 8.04206 9.20023 7.94739 9.14507L6.81035 8.48958C6.71628 8.4338 6.63816 8.35473 6.58354 8.25998C6.52891 8.16522 6.49963 8.058 6.49852 7.94863V7.1001L5.50997 7.68347V8.532C5.51109 8.64137 5.54037 8.74859 5.59499 8.84335C5.64961 8.9381 5.72773 9.01717 5.82181 9.07294L7.94315 10.3012C8.03837 10.3547 8.14576 10.3828 8.25499 10.3828C8.36422 10.3828 8.47161 10.3547 8.56682 10.3012L10.6882 9.07294C10.7822 9.01717 10.8604 8.9381 10.915 8.84335C10.9696 8.74859 10.9989 8.64137 11 8.532V6.07125C10.9989 5.96188 10.9696 5.85466 10.915 5.7599C10.8604 5.66515 10.7822 5.58608 10.6882 5.5303L8.57107 4.30417Z" fill="black" fill-opacity="0.26"/>
</svg>
