<svg width="12" height="12" viewBox="0 0 12 12" fill="none" xmlns="http://www.w3.org/2000/svg">
<path d="M8.57107 4.30429C8.4764 4.24913 8.36879 4.22007 8.25923 4.22007C8.14966 4.22007 8.04206 4.24913 7.94739 4.30429L6.49852 5.1401L5.50997 5.71074L4.0611 6.54655C3.96643 6.60171 3.85882 6.63077 3.74926 6.63077C3.63969 6.63077 3.53209 6.60171 3.43742 6.54655L2.30038 5.89106C2.2063 5.83528 2.12819 5.75621 2.07356 5.66146C2.01894 5.5667 1.98966 5.45948 1.98855 5.35011V4.03488C1.98818 3.92522 2.01684 3.81742 2.07161 3.72241C2.12638 3.62741 2.20531 3.54858 2.30038 3.49394L3.43742 2.83845C3.53209 2.78329 3.63969 2.75423 3.74926 2.75423C3.85882 2.75423 3.96643 2.78329 4.0611 2.83845L5.19813 3.49394C5.29321 3.54858 5.37214 3.62741 5.42691 3.72241C5.48168 3.81742 5.51033 3.92522 5.50997 4.03488V4.88342L6.49852 4.31066V3.46212C6.49872 3.35277 6.46998 3.24533 6.41521 3.15069C6.36044 3.05605 6.28159 2.9776 6.18668 2.9233L4.0611 1.70141C3.96643 1.64625 3.85882 1.61719 3.74926 1.61719C3.63969 1.61719 3.53209 1.64625 3.43742 1.70141L1.31608 2.92966C1.22069 2.98324 1.1412 3.06112 1.08568 3.15539C1.03016 3.24967 1.0006 3.35696 1 3.46636V5.92288C0.999797 6.03222 1.02854 6.13967 1.08331 6.23431C1.13808 6.32894 1.21693 6.4074 1.31184 6.4617L3.43318 7.68995C3.52785 7.74511 3.63545 7.77417 3.74502 7.77417C3.85458 7.77417 3.96219 7.74511 4.05685 7.68995L5.50573 6.85414L6.49427 6.28138L7.94315 5.44557C8.03837 5.39205 8.14576 5.36394 8.25499 5.36394C8.36422 5.36394 8.47161 5.39205 8.56682 5.44557L9.70386 6.10319C9.79877 6.15749 9.87762 6.23594 9.93239 6.33058C9.98716 6.42522 10.0159 6.53267 10.0157 6.64201V7.95512C10.0139 8.06299 9.98479 8.16865 9.93099 8.26216C9.87718 8.35567 9.80049 8.43397 9.70811 8.4897L8.57107 9.14519C8.4764 9.20035 8.36879 9.22941 8.25923 9.22941C8.14966 9.22941 8.04206 9.20035 7.94739 9.14519L6.81035 8.4897C6.71628 8.43393 6.63816 8.35485 6.58354 8.2601C6.52891 8.16535 6.49963 8.05812 6.49852 7.94876V7.10022L5.50997 7.68359V8.53212C5.51109 8.64149 5.54037 8.74872 5.59499 8.84347C5.64961 8.93822 5.72773 9.01729 5.82181 9.07307L7.94315 10.3013C8.03837 10.3548 8.14576 10.383 8.25499 10.383C8.36422 10.383 8.47161 10.3548 8.56682 10.3013L10.6882 9.07307C10.7822 9.01729 10.8604 8.93822 10.915 8.84347C10.9696 8.74872 10.9989 8.64149 11 8.53212V6.07137C10.9989 5.96201 10.9696 5.85478 10.915 5.76003C10.8604 5.66528 10.7822 5.5862 10.6882 5.53043L8.57107 4.30429Z" fill="#8247E5"/>
</svg>
