<svg width="12" height="12" viewBox="0 0 12 12" fill="none" xmlns="http://www.w3.org/2000/svg">
<path fill-rule="evenodd" clip-rule="evenodd" d="M6.20481 0.856634C6.15803 0.789803 6.08158 0.75 6 0.75C5.91842 0.75 5.84198 0.789803 5.79519 0.856634L2.79519 5.85663C2.75203 5.9183 2.73895 5.99612 2.75957 6.06851C2.7802 6.1409 2.83234 6.20014 2.90152 6.22979L5.90152 7.72979C5.96441 7.75674 6.03559 7.75674 6.09848 7.72979L9.09848 6.22979C9.16766 6.20014 9.2198 6.1409 9.24043 6.06851C9.26106 5.99612 9.24797 5.9183 9.20481 5.85663L6.20481 0.856634ZM6 7.22801L3.3812 5.89138L6 1.43595L8.6188 5.89138L6 7.22801ZM3.09848 6.77022C2.9912 6.72424 2.86638 6.75862 2.79776 6.85304C2.72915 6.94746 2.735 7.07679 2.81186 7.16463L5.81186 11.1646C5.85933 11.2189 5.92791 11.25 6 11.25C6.07209 11.25 6.14067 11.2189 6.18815 11.1646L9.18815 7.16463C9.26501 7.07679 9.27085 6.94746 9.20224 6.85304C9.13362 6.75862 9.0088 6.72424 8.90152 6.77022L6 8.22801L3.09848 6.77022ZM6 10.6204L3.9123 7.66298L5.90152 8.72979C5.96441 8.75674 6.03559 8.75674 6.09848 8.72979L8.08771 7.66298L6 10.6204Z" fill="black" fill-opacity="0.26"/>
</svg>
