<?xml version="1.0" encoding="utf-8"?>
<!-- Generator: Adobe Illustrator 24.1.0, SVG Export Plug-In . SVG Version: 6.00 Build 0)  -->
<svg version="1.1" id="レイヤー_1" xmlns="http://www.w3.org/2000/svg" xmlns:xlink="http://www.w3.org/1999/xlink" x="0px"
	 y="0px" viewBox="0 0 12 12" style="enable-background:new 0 0 12 12;" xml:space="preserve">
<style type="text/css">
	.st0{fill-opacity:0.26;}
</style>
<path class="st0" d="M8.6,4.3C8.5,4.2,8.4,4.2,8.3,4.2S8,4.2,7.9,4.3L6.5,5.1l-1,0.6L4.1,6.5C4,6.6,3.9,6.6,3.7,6.6
	c-0.1,0-0.2,0-0.3-0.1L2.3,5.9C2.2,5.8,2.1,5.8,2.1,5.7C2,5.6,2,5.5,2,5.3V4c0-0.1,0-0.2,0.1-0.3s0.1-0.2,0.2-0.2l1.1-0.7
	c0.1-0.1,0.2-0.1,0.3-0.1c0.1,0,0.2,0,0.3,0.1l1.1,0.7c0.1,0.1,0.2,0.1,0.2,0.2S5.5,3.9,5.5,4v0.8l1-0.6V3.5c0-0.1,0-0.2-0.1-0.3
	C6.4,3.1,6.3,3,6.2,2.9L4.1,1.7C4,1.6,3.9,1.6,3.7,1.6c-0.1,0-0.2,0-0.3,0.1L1.3,2.9C1.2,3,1.1,3.1,1.1,3.2C1,3.2,1,3.4,1,3.5v2.5
	C1,6,1,6.1,1.1,6.2c0.1,0.1,0.1,0.2,0.2,0.2l2.1,1.2c0.1,0.1,0.2,0.1,0.3,0.1c0.1,0,0.2,0,0.3-0.1l1.4-0.8l1-0.6l1.4-0.8
	C8,5.4,8.1,5.4,8.3,5.4s0.2,0,0.3,0.1l1.1,0.7c0.1,0.1,0.2,0.1,0.2,0.2C10,6.4,10,6.5,10,6.6V8c0,0.1,0,0.2-0.1,0.3
	C9.9,8.4,9.8,8.4,9.7,8.5L8.6,9.1C8.5,9.2,8.4,9.2,8.3,9.2S8,9.2,7.9,9.1L6.8,8.5C6.7,8.4,6.6,8.4,6.6,8.3C6.5,8.2,6.5,8.1,6.5,7.9
	V7.1l-1,0.6v0.8c0,0.1,0,0.2,0.1,0.3C5.6,8.9,5.7,9,5.8,9.1l2.1,1.2c0.1,0.1,0.2,0.1,0.3,0.1s0.2,0,0.3-0.1l2.1-1.2
	c0.1-0.1,0.2-0.1,0.2-0.2C11,8.7,11,8.6,11,8.5V6.1c0-0.1,0-0.2-0.1-0.3c-0.1-0.1-0.1-0.2-0.2-0.2L8.6,4.3z"/>
</svg>
